<svg width="42" height="42" viewBox="0 0 42 42" fill="none" xmlns="http://www.w3.org/2000/svg">
<g clip-path="url(#clip0_179_1945)">
<path d="M21 0C16.8466 0 12.7865 1.23163 9.33304 3.53914C5.8796 5.84665 3.18798 9.1264 1.59854 12.9636C0.00910097 16.8009 -0.406772 21.0233 0.403518 25.0969C1.21381 29.1705 3.21387 32.9123 6.15077 35.8492C9.08767 38.7861 12.8295 40.7862 16.9031 41.5965C20.9767 42.4068 25.1991 41.9909 29.0364 40.4015C32.8736 38.812 36.1534 36.1204 38.4609 32.667C40.7684 29.2135 42 25.1534 42 21C41.9938 15.4324 39.7793 10.0945 35.8424 6.15762C31.9055 2.2207 26.5677 0.00621339 21 0ZM19.392 2.08424C19.9218 2.04064 20.4584 2.01717 21 2.01717C22.3415 2.01659 23.6792 2.15823 24.9907 2.43971C25.0829 2.45968 25.1687 2.50213 25.2404 2.56328C25.3122 2.62442 25.3677 2.70236 25.4021 2.79017C25.4365 2.87797 25.4486 2.97291 25.4374 3.06652C25.4261 3.16014 25.392 3.24953 25.3378 3.32673L22.7455 7.03074C22.6926 7.10616 22.6224 7.16772 22.5406 7.21022C22.4589 7.25273 22.3682 7.27492 22.276 7.27492C22.1839 7.27492 22.0932 7.25273 22.0114 7.21022C21.9297 7.16772 21.8594 7.10616 21.8065 7.03074L18.9728 2.98299C18.9154 2.90059 18.8807 2.80457 18.8721 2.70454C18.8635 2.60451 18.8813 2.50397 18.9237 2.41298C18.9662 2.32199 19.0318 2.24374 19.1139 2.18605C19.1961 2.12836 19.292 2.09325 19.392 2.08424ZM24.2295 10.4681C24.8948 10.4602 25.5549 10.5849 26.1715 10.8348C26.7881 11.0848 27.3487 11.455 27.8206 11.9239C28.2926 12.3929 28.6664 12.9511 28.9203 13.5661C29.1742 14.181 29.303 14.8404 29.2994 15.5057C29.2957 16.171 29.1595 16.8289 28.8989 17.441C28.6382 18.0531 28.2582 18.6072 27.7811 19.0709C27.304 19.5346 26.7394 19.8986 26.1201 20.1417C25.5008 20.3848 24.8393 20.5022 24.1742 20.4869H17.0613C16.9408 20.4845 16.8232 20.4497 16.7209 20.3861C16.6186 20.3226 16.5352 20.2327 16.4796 20.1258C16.4241 20.0189 16.3983 19.8991 16.405 19.7788C16.4118 19.6585 16.4508 19.5423 16.518 19.4423L22.4052 11.0349C22.5272 10.8599 22.6898 10.717 22.879 10.6183C23.0681 10.5196 23.2783 10.4681 23.4917 10.4681H24.2295ZM15.3191 2.89077C15.5871 2.80732 15.8747 2.81107 16.1405 2.90146C16.4062 2.99186 16.6364 3.16424 16.798 3.3938L19.7542 7.61594C19.8111 7.69549 19.845 7.78927 19.8519 7.88688C19.8589 7.98449 19.8387 8.08212 19.7935 8.16894C19.7484 8.25576 19.6801 8.32839 19.5962 8.37876C19.5123 8.42913 19.416 8.45529 19.3182 8.45433H17.3815C17.3387 8.45457 17.2966 8.46504 17.2587 8.48488C17.2208 8.50471 17.1881 8.53333 17.1635 8.56835L16.1256 10.054C16.0976 10.0937 16.0811 10.1405 16.0778 10.189C16.0746 10.2376 16.0848 10.2861 16.1073 10.3292C16.1299 10.3723 16.1638 10.4084 16.2055 10.4335C16.2472 10.4586 16.2949 10.4718 16.3436 10.4715H19.3232C19.4208 10.4711 19.5167 10.4977 19.6002 10.5482C19.6837 10.5987 19.7517 10.6712 19.7968 10.7578C19.8418 10.8444 19.8621 10.9417 19.8555 11.0391C19.8489 11.1365 19.8155 11.2302 19.7592 11.3099L13.3287 20.4919H2.63088C2.5526 20.4921 2.47511 20.4762 2.40317 20.4453C2.33123 20.4144 2.26635 20.3692 2.2125 20.3124C2.15866 20.2556 2.11698 20.1883 2.09003 20.1148C2.06307 20.0413 2.0514 19.9631 2.05574 19.8849C2.28803 16.0431 3.6801 12.3621 6.04813 9.32799C8.41616 6.29386 11.6488 4.04932 15.3191 2.89077ZM5.96097 31.002C5.89722 31.0905 5.81287 31.1621 5.71522 31.2106C5.61756 31.2591 5.50956 31.283 5.40055 31.2804C5.29155 31.2778 5.18483 31.2486 5.08964 31.1954C4.99445 31.1422 4.91367 31.0666 4.85429 30.9752C3.37883 28.5977 2.45095 25.9218 2.13791 23.1413C2.12893 23.0607 2.13708 22.9791 2.16182 22.9019C2.18657 22.8248 2.22736 22.7537 2.2815 22.6933C2.33565 22.633 2.40194 22.5848 2.47602 22.5519C2.5501 22.519 2.6303 22.5021 2.71136 22.5024H10.8907C10.9886 22.5014 11.0848 22.5276 11.1687 22.578C11.2526 22.6283 11.3209 22.701 11.366 22.7878C11.4112 22.8746 11.4314 22.9722 11.4244 23.0698C11.4175 23.1674 11.3836 23.2612 11.3267 23.3408L5.96097 31.002ZM7.98819 31.6207L13.9777 23.0692C14.1005 22.8954 14.2633 22.7538 14.4525 22.6563C14.6416 22.5588 14.8514 22.5083 15.0642 22.5091H24.2295C24.8948 22.5012 25.5549 22.6258 26.1715 22.8758C26.7881 23.1257 27.3487 23.496 27.8206 23.9649C28.2926 24.4338 28.6664 24.9921 28.9203 25.607C29.1742 26.222 29.303 26.8813 29.2994 27.5466C29.2957 28.2119 29.1595 28.8698 28.8989 29.4819C28.6382 30.0941 28.2582 30.6481 27.7811 31.1118C27.304 31.5755 26.7394 31.9396 26.1201 32.1827C25.5008 32.4258 24.8393 32.5431 24.1742 32.5279H8.4577C8.35203 32.5284 8.24825 32.4998 8.15783 32.4451C8.06741 32.3905 7.99385 32.3119 7.94528 32.218C7.89671 32.1242 7.87501 32.0187 7.88259 31.9133C7.89016 31.8079 7.92671 31.7067 7.98819 31.6207ZM21.1777 39.9828C16.7515 40.0287 12.4496 38.519 9.02277 35.7171C8.922 35.6284 8.85016 35.5115 8.81655 35.3815C8.78295 35.2516 8.78913 35.1145 8.83428 34.9881C8.87943 34.8616 8.96149 34.7517 9.06983 34.6724C9.17816 34.5931 9.3078 34.5482 9.44196 34.5434H24.1574C28.014 34.5434 31.2468 31.3877 31.2552 27.5311C31.2572 26.4444 31.007 25.3721 30.5243 24.3986C30.0416 23.425 29.3396 22.5767 28.4734 21.9206C28.4091 21.8712 28.357 21.8078 28.3211 21.7351C28.2852 21.6624 28.2666 21.5824 28.2666 21.5014C28.2666 21.4203 28.2852 21.3403 28.3211 21.2676C28.357 21.1949 28.4091 21.1315 28.4734 21.0822C29.6 20.2294 30.4432 19.0567 30.8929 17.7172C31.3426 16.3778 31.3779 14.9338 30.9942 13.574C30.6104 12.2142 29.8255 11.0017 28.7419 10.0949C27.6584 9.18814 26.3265 8.62924 24.9203 8.49121C24.8512 8.48452 24.7849 8.45988 24.7282 8.41972C24.6715 8.37957 24.6262 8.3253 24.5969 8.26229C24.5676 8.19927 24.5553 8.12969 24.5611 8.06044C24.567 7.99119 24.5908 7.92467 24.6302 7.86745L27.2175 4.17853C27.3953 3.92432 27.6565 3.74037 27.9557 3.65859C28.2549 3.57682 28.5734 3.60238 28.8557 3.73084C32.7907 5.5182 35.9979 8.59477 37.9473 12.452C39.8966 16.3092 40.4714 20.7162 39.5766 24.9444C38.6818 29.1726 36.371 32.9689 33.0262 35.7058C29.6814 38.4426 25.5028 39.9562 21.1811 39.9962L21.1777 39.9828Z" fill="#BC5837"/>
</g>
<defs>
<clipPath id="clip0_179_1945">
<rect width="42" height="42" fill="white"/>
</clipPath>
</defs>
</svg>
