<svg width="35" height="35" viewBox="0 0 35 35" fill="none" xmlns="http://www.w3.org/2000/svg">
<g clip-path="url(#clip0_178_1844)">
<path d="M32.4711 35H2.53143C2.07771 34.8065 1.5769 34.6799 1.17797 34.4051C0.302197 33.8017 0 32.8928 0 31.8537C0.00456576 23.5738 0.00456576 15.2942 0 7.01486C0 5.6945 0 4.37357 0 3.05207C0 2.3511 0.171212 1.70148 0.606101 1.1383C1.2533 0.307227 2.1265 -3.69565e-05 3.15123 -3.69565e-05C12.0231 0.00395721 20.8946 0.00395721 29.7659 -3.69565e-05C30.5064 -3.69565e-05 31.2461 -0.00517231 31.9866 -3.69565e-05C32.9771 0.00852197 33.8349 0.34232 34.4025 1.17425C34.6755 1.57481 34.8031 2.07379 34.9966 2.52827V32.4674C34.9731 32.5285 34.9528 32.5908 34.9358 32.654C34.8021 33.3131 34.4476 33.907 33.9308 34.3375C33.5044 34.7038 32.9908 34.8519 32.4711 35ZM16.3374 16.3415C16.3374 15.4069 16.3443 14.5202 16.3374 13.6343C16.3169 11.6615 16.9264 9.91205 18.2319 8.43307C19.6993 6.77264 21.5424 5.86111 23.7768 5.83458C25.6225 5.81318 27.4682 5.83458 29.3139 5.83458H29.718V12.8443H29.3173C27.5744 12.8443 25.8314 12.8443 24.0884 12.8443C23.5157 12.8443 23.3359 13.0249 23.3325 13.6027C23.3273 14.4226 23.3325 15.2434 23.3325 16.0633C23.3325 16.1489 23.3496 16.2345 23.3624 16.3544H29.1487V23.3436H23.3573V33.836H31.8565C33.156 33.836 33.8374 33.1512 33.8374 31.8546V3.14537C33.8374 1.84698 33.1526 1.1674 31.8539 1.1674H3.14524C1.84828 1.1674 1.16941 1.85211 1.16941 3.15307C1.16941 12.7219 1.16941 22.2914 1.16941 31.8614C1.16941 33.1564 1.85427 33.8351 3.15723 33.8351H16.3178V23.323H11.6949V16.3415H16.3374ZM27.9878 17.491H22.1622V17.1264C22.1622 15.9649 22.1622 14.8026 22.1622 13.6412C22.1622 12.3573 22.8368 11.6769 24.1184 11.6726C25.4735 11.6726 26.8287 11.6726 28.1847 11.6726H28.558V7.01571C28.4398 7.00886 28.3388 6.99774 28.2387 6.99774C26.678 6.99774 25.1174 6.99346 23.5576 6.99774C23.2956 7.00227 23.0345 7.03092 22.7777 7.08333C21.32 7.35251 19.9998 8.11622 19.0399 9.24558C18.0799 10.3749 17.5391 11.8008 17.5086 13.2826C17.4795 14.5578 17.5017 15.834 17.5009 17.1101C17.5009 17.2308 17.5009 17.3523 17.5009 17.5072H12.8626V22.1719H17.5111V33.812H22.1768V22.153H27.987L27.9878 17.491Z" fill="white"/>
</g>
<defs>
<clipPath id="clip0_178_1844">
<rect width="35" height="35" fill="white"/>
</clipPath>
</defs>
</svg>
