<svg width="35" height="35" viewBox="0 0 35 35" fill="none" xmlns="http://www.w3.org/2000/svg">
<g clip-path="url(#clip0_178_1817)">
<path d="M0 29.6654V5.33186C0.0261008 5.27109 0.0468391 5.20815 0.0619785 5.14376C0.235652 3.94681 0.765536 2.83015 1.58244 1.93956C2.39935 1.04898 3.46531 0.425862 4.64114 0.15158C4.87083 0.0986174 5.10143 0.0502231 5.33203 0H29.668C29.7168 0.0252009 29.7681 0.0451012 29.8211 0.0593568C32.3039 0.432834 34.228 2.1669 34.8286 4.57578C34.8906 4.82598 34.9426 5.07984 35 5.33186V29.6654C34.9733 29.7241 34.9522 29.7853 34.9371 29.848C34.7355 31.2743 34.027 32.5798 32.9419 33.5249C31.8568 34.4699 30.4678 34.9911 29.0299 34.9927C21.3415 35.0024 13.653 35.0024 5.96458 34.9927C4.62147 34.99 3.31837 34.5344 2.26515 33.6994C1.21193 32.8644 0.469909 31.6985 0.158593 30.3895C0.102994 30.1484 0.053776 29.9056 0 29.6654ZM33.9746 17.5005C33.9746 13.6853 33.9746 9.8699 33.9746 6.05416C33.9746 3.21701 31.7871 1.03185 28.9516 1.02638C21.3196 1.02272 13.688 1.02272 6.05664 1.02638C3.22292 1.02638 1.02995 3.21793 1.02903 6.04868C1.02478 13.6795 1.02478 21.3104 1.02903 28.9413C1.02903 31.772 3.21654 33.9636 6.05117 33.97C13.6831 33.9742 21.3148 33.9742 28.9461 33.97C29.2989 33.972 29.651 33.9381 29.997 33.8686C32.3586 33.3709 33.9719 31.3757 33.9746 28.9495C33.9789 25.1325 33.9789 21.3162 33.9746 17.5005Z" fill="white"/>
<path d="M17.499 7.66675C22.9057 7.66675 27.3309 12.0873 27.3336 17.4959C27.3363 22.9044 22.9094 27.3277 17.5026 27.3286C12.0958 27.3295 7.66979 22.9053 7.66797 17.4995C7.66615 12.0937 12.0904 7.66857 17.499 7.66675ZM17.5145 26.3041C22.3579 26.2949 26.3201 22.3209 26.3082 17.484C26.2964 12.647 22.3288 8.68308 17.4871 8.69221C12.6454 8.70134 8.68333 12.6735 8.69336 17.5114C8.70339 22.3492 12.6755 26.3123 17.5145 26.3041Z" fill="white"/>
<path d="M27.9039 9.78438C27.5481 9.78513 27.1957 9.715 26.8673 9.57806C26.5388 9.44112 26.2408 9.24011 25.9906 8.98671C25.7404 8.73332 25.5429 8.43261 25.4098 8.10207C25.2767 7.77154 25.2105 7.41778 25.2151 7.06137C25.2232 6.34749 25.512 5.66562 26.0188 5.16371C26.5256 4.6618 27.2095 4.38032 27.9221 4.38037C28.6343 4.38725 29.3155 4.67339 29.8197 5.17745C30.3238 5.68151 30.6108 6.36337 30.6191 7.0769C30.6187 7.43342 30.5482 7.78637 30.4114 8.11553C30.2747 8.44469 30.0745 8.74359 29.8223 8.9951C29.57 9.24661 29.2707 9.44578 28.9416 9.58122C28.6124 9.71666 28.2597 9.7857 27.9039 9.78438ZM27.9276 8.75891C28.3706 8.75554 28.7944 8.57684 29.1065 8.26176C29.4186 7.94669 29.5937 7.52079 29.5937 7.0769C29.5871 6.63354 29.4078 6.21032 29.0942 5.89747C28.7806 5.58462 28.3574 5.4069 27.9148 5.40218C27.6928 5.40265 27.4731 5.44723 27.2685 5.53335C27.0638 5.61948 26.8782 5.74543 26.7225 5.90391C26.5668 6.06239 26.444 6.25026 26.3612 6.45662C26.2785 6.66298 26.2374 6.88375 26.2405 7.10612C26.2415 7.32603 26.2861 7.54355 26.3718 7.74605C26.4574 7.94855 26.5823 8.132 26.7392 8.28575C26.8962 8.43951 27.082 8.56051 27.286 8.64173C27.49 8.72295 27.7081 8.76278 27.9276 8.75891Z" fill="white"/>
<path d="M17.3699 10.4108C18.9067 10.429 20.2201 10.8098 21.4104 11.5979C21.8124 11.8645 21.919 12.1549 21.7203 12.4352C21.5216 12.7155 21.2473 12.7155 20.8517 12.4571C17.2761 10.1149 12.5483 12.0006 11.5858 16.1636C11.2057 17.8073 11.5093 19.3468 12.4061 20.7732C12.4544 20.8499 12.5119 20.922 12.5574 21.0005C12.7188 21.2745 12.6668 21.5603 12.428 21.7247C12.1892 21.889 11.9003 21.8351 11.7107 21.5703C11.2324 20.9034 10.8791 20.1549 10.668 19.3614C10.402 18.3862 10.3475 17.3653 10.5082 16.3672C10.6689 15.3692 11.041 14.4171 11.5996 13.5752C12.1583 12.7333 12.8903 12.021 13.7467 11.4862C14.603 10.9513 15.5637 10.6065 16.5642 10.4747C16.8668 10.4327 17.1804 10.4254 17.3699 10.4108Z" fill="white"/>
<path d="M17.4928 24.5837C16.0488 24.5766 14.6409 24.1308 13.4551 23.3053C13.2099 23.1355 13.106 22.9081 13.2418 22.6287C13.3685 22.3666 13.5982 22.2844 13.8725 22.3748C13.9767 22.4198 14.0747 22.4777 14.1642 22.5474C17.6277 24.8093 22.2379 23.0871 23.3417 19.1039C23.8238 17.3689 23.5422 15.7253 22.5806 14.2003C22.5323 14.1236 22.4758 14.0515 22.4311 13.972C22.2844 13.7081 22.34 13.4351 22.5606 13.2744C22.6147 13.2311 22.6777 13.2002 22.745 13.1837C22.8123 13.1672 22.8823 13.1656 22.9503 13.179C23.0183 13.1924 23.0826 13.2204 23.1387 13.2612C23.1948 13.3019 23.2413 13.3544 23.2751 13.415C23.6169 14.0277 23.9943 14.6386 24.2158 15.297C25.7479 19.8609 22.2981 24.602 17.4928 24.5837Z" fill="white"/>
</g>
<defs>
<clipPath id="clip0_178_1817">
<rect width="35" height="35" fill="white"/>
</clipPath>
</defs>
</svg>
