<svg width="52" height="32" viewBox="0 0 52 32" fill="none" xmlns="http://www.w3.org/2000/svg">
<g clip-path="url(#clip0_178_1846)">
<path d="M0 5.73453C0.302148 5.18528 0.761719 5.0022 1.38125 5.0086C4.17422 5.03165 6.96719 5.0086 9.76016 5.02653C10.1293 5.03787 10.4913 4.92279 10.7872 4.70004C14.0309 2.3366 17.6833 0.987156 21.6062 0.335479C22.2092 0.235615 22.7322 0.578744 22.8452 1.12672C22.962 1.69389 22.6078 2.18168 21.9692 2.35453C20.1919 2.83336 18.4146 3.2917 16.6499 3.81791C15.9859 4.01508 15.3702 4.37484 14.7456 4.71412C17.2288 5.0214 19.4797 5.86641 21.4805 7.34772C23.4812 8.82904 24.9552 10.7213 25.9835 13.1091C28.2687 8.24394 31.9795 5.43495 37.3331 4.74487C37.1579 4.64372 37.0475 4.57074 36.9294 4.51312C34.9195 3.53285 32.7826 2.84323 30.5817 2.46463C30.3646 2.43377 30.1493 2.39103 29.9368 2.3366C29.3579 2.16632 29.0481 1.67852 29.1637 1.13567C29.2199 0.873201 29.376 0.643478 29.5985 0.495971C29.821 0.348463 30.092 0.294966 30.3532 0.346997C31.4641 0.56593 32.5787 0.779743 33.668 1.08446C36.4428 1.84711 39.0594 3.10599 41.3931 4.80119C41.6007 4.93644 41.8429 5.00763 42.09 5.00604C44.916 5.02012 47.742 5.0278 50.568 5.00604C51.2027 5.00604 51.6864 5.15968 52 5.73198V6.34652C51.2383 7.57178 50.4969 8.80599 49.7148 10.0184C49.513 10.3308 49.5422 10.5408 49.7364 10.8314C50.6956 12.2598 51.3612 13.8675 51.694 15.5596C51.8096 16.1396 51.8972 16.7247 51.9975 17.3085V19.4594C51.7639 20.5195 51.543 21.5822 51.2903 22.6372C51.192 22.9988 51.0611 23.3506 50.8993 23.6883C50.634 24.2811 50.1071 24.5179 49.5803 24.3054C49.0534 24.0929 48.8478 23.5795 49.0204 22.9483C49.3238 21.8344 49.7263 20.7308 49.871 19.5951C50.2734 16.4264 49.4355 13.5457 47.4183 11.0965C44.5161 7.57049 40.7304 6.12119 36.2807 6.99948C31.831 7.87777 28.8044 10.674 27.4993 15.0833C25.6293 21.3965 29.2881 27.8186 35.5989 29.5111C38.004 30.1732 40.5596 30.0056 42.8594 29.0349C43.0155 28.9708 43.1704 28.9068 43.3304 28.8479C43.9309 28.6482 44.4729 28.8748 44.6799 29.401C44.7338 29.5278 44.7606 29.6646 44.7585 29.8026C44.7564 29.9405 44.7254 30.0765 44.6677 30.2015C44.6099 30.3266 44.5267 30.438 44.4233 30.5284C44.32 30.6188 44.1989 30.6861 44.068 30.7261C43.0028 31.1025 41.9339 31.5276 40.8307 31.7209C36.8951 32.4123 33.3163 31.4777 30.1399 29.0323C29.6842 28.6802 29.2678 28.2782 28.7854 27.857L27.3165 30.0463C27.1896 30.2294 27.0715 30.415 26.9445 30.5955C26.3923 31.3816 25.6293 31.3906 25.0872 30.6032C24.5451 29.8158 24.0437 29.0502 23.5206 28.2744C23.4267 28.1348 23.3251 28.0004 23.2667 27.9159C22.2854 28.6431 21.3802 29.4599 20.3468 30.0514C15.9098 32.5941 11.3737 32.6748 6.90752 30.1922C3.30459 28.1898 1.12227 25.039 0.266602 20.974C0.154884 20.4427 0.0888684 19.9024 0.00127077 19.3673V17.2163C0.0343264 17.157 0.058697 17.0932 0.0736311 17.0268C0.293856 14.7437 1.07965 12.5529 2.35879 10.656C2.43877 10.5357 2.4083 10.2643 2.32451 10.126C1.56279 8.86233 0.782032 7.61147 0.00507921 6.35677L0 5.73453ZM13.5205 29.9106C19.825 29.9106 24.9831 24.7023 24.9895 18.3443C24.9958 11.9863 19.8428 6.78183 13.5332 6.76262C7.22363 6.74342 2.02109 11.9876 2.03887 18.3571C2.05664 24.7266 7.21348 29.917 13.5205 29.9106ZM25.9987 23.6576C25.5595 24.4257 25.1291 25.1773 24.7114 25.9339C24.6796 25.987 24.6594 26.0464 24.6522 26.108C24.645 26.1696 24.6509 26.232 24.6695 26.2911C25.0948 26.9595 25.543 27.6137 26.0178 28.323C26.485 27.6278 26.9153 27.0017 27.3254 26.3628C27.3514 26.3072 27.3649 26.2464 27.3649 26.1849C27.3649 26.1234 27.3514 26.0626 27.3254 26.0069C26.8925 25.2234 26.4443 24.4488 25.9924 23.6576H25.9987ZM3.87969 8.74966L5.81572 7.09935H2.86787L3.87969 8.74966ZM46.1729 7.08526C46.8622 7.66652 47.4779 8.1876 48.1241 8.73429L49.1397 7.08526H46.1729Z" fill="white"/>
<path d="M38.4713 25.0965C36.6912 25.086 34.9879 24.3636 33.7354 23.0877C32.4829 21.8119 31.7836 20.087 31.7911 18.2917C31.8098 16.5058 32.5259 14.7994 33.7841 13.5425C35.0422 12.2856 36.741 11.5797 38.512 11.5778C40.2914 11.5906 41.9933 12.3138 43.2453 13.5892C44.4973 14.8645 45.1973 16.588 45.1922 18.3826C45.1755 20.1691 44.46 21.8767 43.2014 23.134C41.9428 24.3913 40.2429 25.0966 38.4713 25.0965ZM38.5005 23.048C39.7309 23.0341 40.9071 22.5352 41.7775 21.6581C42.648 20.781 43.1436 19.5953 43.1585 18.3544C43.1775 15.7938 41.0282 13.6173 38.4828 13.6288C37.2524 13.6421 36.076 14.1406 35.2055 15.0176C34.335 15.8945 33.8394 17.0803 33.8249 18.3211C33.8084 20.8894 35.9488 23.0532 38.5005 23.0455V23.048Z" fill="white"/>
<path d="M48.4238 27.149C48.4238 27.6867 47.8982 28.2423 47.3574 28.2641C47.0926 28.264 46.8378 28.1621 46.6449 27.9792C46.4519 27.7963 46.3354 27.5461 46.3189 27.2795C46.2986 26.7188 46.8483 26.1401 47.4044 26.1362C47.6691 26.1458 47.9207 26.2551 48.1094 26.4426C48.2981 26.6301 48.4103 26.8821 48.4238 27.149Z" fill="white"/>
<path d="M26.0555 2.68278e-05C26.1902 0.00233193 26.3231 0.0316343 26.4464 0.086235C26.5698 0.140836 26.6811 0.219637 26.774 0.318056C26.8669 0.416476 26.9394 0.532556 26.9873 0.659513C27.0353 0.786471 27.0577 0.921777 27.0533 1.05756C27.0425 1.32338 26.9295 1.5745 26.7382 1.75778C26.547 1.94106 26.2926 2.04212 26.0288 2.03956C25.7565 2.03858 25.4954 1.92972 25.3018 1.73646C25.1083 1.5432 24.9978 1.28099 24.9941 1.00635C25.0063 0.732279 25.124 0.473813 25.3222 0.285892C25.5204 0.0979717 25.7835 -0.00458231 26.0555 2.68278e-05Z" fill="white"/>
<path d="M13.4958 25.0965C11.7161 25.086 10.0131 24.3649 8.75942 23.091C7.50576 21.8171 6.8036 20.0942 6.80665 18.2994C6.82336 16.5133 7.53771 14.8058 8.79473 13.5475C10.0517 12.2891 11.7501 11.5814 13.5212 11.5778C15.3004 11.5883 17.0031 12.309 18.2567 13.5824C19.5103 14.8557 20.2127 16.578 20.2104 18.3723C20.1943 20.1589 19.4803 21.867 18.2232 23.1259C16.9661 24.3848 15.2674 25.0929 13.4958 25.0965ZM13.511 23.048C14.741 23.0351 15.9172 22.5381 16.7888 21.6629C17.6604 20.7877 18.1584 19.6037 18.1766 18.3634C18.1994 15.8028 16.0539 13.6263 13.506 13.6263C12.2757 13.6388 11.0991 14.136 10.2274 15.0115C9.3557 15.887 8.85794 17.0716 8.84044 18.3122C8.82394 20.8779 10.9606 23.048 13.511 23.0455V23.048Z" fill="white"/>
<path d="M38.4777 15.2677C39.2806 15.2716 40.0501 15.5925 40.6213 16.1615C41.1924 16.7306 41.5199 17.5027 41.5335 18.3123C41.5324 19.1214 41.2176 19.898 40.6563 20.4762C40.0951 21.0544 39.3319 21.3884 38.5298 21.4068C37.7178 21.4098 36.9378 21.0881 36.3607 20.5121C35.7836 19.9361 35.4565 19.1529 35.4512 18.334C35.4577 17.5253 35.7783 16.7513 36.3441 16.1781C36.9099 15.6049 37.6758 15.2781 38.4777 15.2677ZM39.4934 18.3404C39.4862 18.0739 39.3792 17.82 39.1937 17.6299C39.0083 17.4399 38.7584 17.3278 38.4942 17.3162C38.2295 17.3219 37.9769 17.4294 37.7881 17.6167C37.5993 17.804 37.4886 18.0569 37.4786 18.3238C37.4833 18.5907 37.5892 18.8456 37.7746 19.0361C37.96 19.2266 38.2107 19.3383 38.4752 19.348C38.74 19.3438 38.9933 19.2378 39.1834 19.0518C39.3735 18.8658 39.4862 18.6137 39.4984 18.3468L39.4934 18.3404Z" fill="white"/>
<path d="M13.51 15.2677C14.3137 15.274 15.083 15.5978 15.6526 16.1697C16.2223 16.7415 16.5469 17.5158 16.5568 18.3264C16.552 19.1359 16.2333 19.9113 15.6689 20.487C15.1045 21.0626 14.3392 21.3927 13.5366 21.4068C12.725 21.4061 11.9467 21.0812 11.3721 20.5031C10.7975 19.9251 10.4734 19.141 10.4707 18.3225C10.4806 17.5137 10.8043 16.7409 11.3725 16.1699C11.9406 15.5989 12.7079 15.275 13.51 15.2677ZM14.5167 18.3404C14.5098 18.0736 14.4027 17.8194 14.217 17.6292C14.0312 17.439 13.7808 17.3271 13.5163 17.3162C13.2515 17.3225 12.9991 17.4304 12.8104 17.6178C12.6217 17.8052 12.5109 18.0582 12.5007 18.3251C12.506 18.5922 12.6125 18.8471 12.7983 19.0376C12.9841 19.228 13.2351 19.3396 13.4998 19.3493C13.7638 19.3428 14.0155 19.2356 14.2042 19.0493C14.3929 18.8631 14.5046 18.6116 14.5167 18.3456V18.3404Z" fill="white"/>
</g>
<defs>
<clipPath id="clip0_178_1846">
<rect width="52" height="32" fill="white"/>
</clipPath>
</defs>
</svg>
