<svg width="18" height="16" viewBox="0 0 18 16" fill="none" xmlns="http://www.w3.org/2000/svg">
<g clip-path="url(#clip0_31_227)">
<path d="M0.00037452 9.4669C0.77277 6.70863 2.72576 5.36851 5.46807 4.96352C5.62445 4.94064 5.83971 4.76169 5.88236 4.61571C7.06973 0.520681 11.344 -1.20021 15.1484 0.896076C18.2238 2.59073 18.856 5.96457 16.832 8.38848C16.4096 8.89506 16.5111 9.6546 17.0005 10.3926C17.1183 10.5702 17.1671 10.7963 17.2469 10.9981C17.0134 11.0586 16.7548 11.2147 16.5517 11.1616C15.9499 11.0021 15.2797 10.8804 14.8018 10.5238C13.9049 9.85441 13.1094 10.6186 12.2687 10.5379C12.224 10.5339 12.1211 10.7586 12.1055 10.8844C11.8158 13.1845 9.42076 15.4503 6.08071 15.3958C6.03391 15.3972 5.98708 15.3952 5.94058 15.3898C4.66183 15.1745 3.38849 14.9808 2.26612 15.8984C2.17001 15.9682 2.05343 16.0046 1.93441 16.002C1.55194 15.9953 1.16946 15.965 0.783602 15.9435C0.904775 15.6434 1.01038 15.338 1.14983 15.044C1.48424 14.3464 1.53366 13.7315 1.01444 13.0372C0.566981 12.4391 0.327342 11.6917 -0.000976562 11.0062L0.00037452 9.4669ZM1.93779 15.3481C2.39473 15.079 2.75893 14.9444 3.01482 14.7016C3.4 14.3302 3.74795 14.2979 4.26649 14.4325C6.13215 14.9249 7.93892 14.7991 9.5636 13.642C12.113 11.8256 12.0717 8.41136 9.49048 6.63261C7.28432 5.11219 4.0343 5.35438 2.08537 7.19032C0.407899 8.76792 0.265061 10.9577 1.65483 12.793C1.92561 13.1495 2.02715 13.6675 2.09891 14.1237C2.15103 14.4473 2.01903 14.7991 1.93779 15.3481ZM6.6006 4.77515C8.78511 5.73718 11.0008 5.6921 13.2191 5.63425C13.6402 5.62348 14.0666 5.59657 14.4816 5.6477C14.7179 5.67596 14.9372 5.84953 15.1646 5.95246C14.9297 6.07894 14.6982 6.30565 14.4593 6.31373C13.3132 6.35207 12.1658 6.32853 11.0184 6.33458C10.837 6.34363 10.6562 6.36227 10.4768 6.39042C10.8891 6.96764 11.3142 7.44529 11.6012 7.99493C11.8882 8.54456 12.0297 9.1534 12.2646 9.81875C12.7716 9.72524 13.3078 9.67142 13.8148 9.52005C14.2393 9.39357 14.5446 9.41106 14.8905 9.7286C15.1883 10.0024 15.5959 10.1578 16.0487 10.4202C15.7929 8.76455 15.7929 8.76455 16.6214 7.48162C17.5834 5.99215 17.5103 4.27328 16.4238 2.85916C14.4044 0.231397 9.97857 0.00939163 7.71147 2.42994C7.07988 3.10673 6.65273 3.88846 6.6006 4.77515Z" fill="white"/>
<path d="M6.11804 11.9211C5.25087 11.9211 4.38302 11.944 3.51789 11.9056C3.2857 11.8955 3.06163 11.6984 2.8335 11.5874C3.07043 11.4663 3.30736 11.2436 3.54361 11.2396C5.25313 11.2091 6.96309 11.2091 8.67351 11.2396C8.88742 11.243 9.09796 11.4603 9.30984 11.576C9.08915 11.6904 8.87253 11.8922 8.64711 11.9029C7.80295 11.9447 6.96083 11.9204 6.11804 11.9211Z" fill="white"/>
<path d="M6.81285 9.12851C7.46881 9.12851 8.12613 9.10564 8.78006 9.14264C8.9608 9.1534 9.13207 9.3411 9.3074 9.4474C9.14561 9.57185 8.98653 9.80059 8.82203 9.80463C7.46408 9.83333 6.1059 9.83333 4.74749 9.80463C4.5769 9.80126 4.40902 9.57723 4.24316 9.45614C4.42052 9.34715 4.59315 9.15408 4.7766 9.14399C5.45354 9.10564 6.13388 9.12851 6.81285 9.12851Z" fill="white"/>
<path d="M12.6602 3.53798C13.3162 3.53798 13.9728 3.51443 14.6233 3.55278C14.8081 3.56287 14.9828 3.7546 15.1649 3.85955C14.9977 3.98267 14.8339 4.20938 14.6646 4.21342C13.3067 4.24302 11.9483 4.24302 10.5894 4.21342C10.4236 4.21005 10.2625 3.98401 10.0986 3.8609C10.2733 3.75326 10.4425 3.56152 10.6226 3.55211C11.3002 3.51578 11.9805 3.53798 12.6602 3.53798Z" fill="white"/>
</g>
<defs>
<clipPath id="clip0_31_227">
<rect width="18" height="16" fill="white"/>
</clipPath>
</defs>
</svg>
