<svg width="43" height="43" viewBox="0 0 43 43" fill="none" xmlns="http://www.w3.org/2000/svg">
<g clip-path="url(#clip0_250_332)">
<path d="M24.4802 42.9948V27.593H24.8822C26.2796 27.593 27.6772 27.593 29.0751 27.593C29.2717 27.593 29.4212 27.593 29.4551 27.3277C29.6965 25.4558 29.952 23.5855 30.2023 21.7144C30.2059 21.6501 30.2059 21.5857 30.2023 21.5214H24.4559C24.4559 20.9318 24.4382 20.3821 24.4596 19.8367C24.4979 18.8463 24.4839 17.847 24.6289 16.8698C24.8675 15.2597 26.0764 14.3252 27.5739 14.3318C28.4074 14.3318 29.2401 14.295 30.0735 14.2729C30.181 14.2729 30.2877 14.2611 30.4173 14.253C30.4262 14.127 30.4409 14.0209 30.4409 13.914C30.4409 12.4549 30.4357 10.995 30.4483 9.5359C30.4483 9.26176 30.3709 9.16006 30.0919 9.1129C28.2123 8.79602 26.337 8.57641 24.4228 8.8395C21.0699 9.30156 18.9473 11.1977 18.1602 14.7917C17.9762 15.6325 17.9658 16.5191 17.9393 17.3864C17.9047 18.612 17.9305 19.8389 17.9305 21.0652V21.4993H12.5846V27.559H17.8974V42.9661C17.7847 42.9749 17.6905 42.9897 17.5955 42.9897C14.9715 42.9853 12.3475 43.0074 9.72426 42.9587C8.67511 42.9388 7.60459 42.8688 6.58635 42.636C2.88301 41.7892 0.360613 38.7464 0.125749 34.9254C0.0521243 33.6778 0.00574692 32.4265 0.00353816 31.1767C-0.00824185 24.5177 -0.0060446 17.8588 0.0101529 11.1999C0.0153067 9.80561 0.0513916 8.39292 0.276684 7.02222C0.901025 3.22039 3.96309 0.463527 7.80485 0.143698C8.84149 0.0574769 9.88549 0.00735685 10.9258 0.00588298C18.0498 -0.00590793 25.1737 -0.00590793 32.2977 0.00588298C33.779 0.00588298 35.2677 0.0191528 36.7152 0.416359C40.1756 1.36553 42.6214 4.31621 42.8519 7.90065C42.9527 9.47768 42.9778 11.0606 42.9815 12.6413C42.9947 19.2246 42.9947 25.8101 42.9815 32.3977C42.977 33.9394 42.9527 35.4877 42.4985 36.9903C41.5288 40.1982 38.6656 42.5549 35.323 42.8342C34.2127 42.927 33.0958 42.9735 31.9819 42.9816C29.6398 43.0044 27.2978 42.9889 24.9558 42.9889L24.4802 42.9948Z" fill="black"/>
</g>
<defs>
<clipPath id="clip0_250_332">
<rect width="43" height="43" fill="white"/>
</clipPath>
</defs>
</svg>
