<svg width="53" height="53" viewBox="0 0 53 53" fill="none" xmlns="http://www.w3.org/2000/svg">
<circle cx="26.5" cy="26.5" r="26" stroke="#717171"/>
<g clip-path="url(#clip0_292_3)">
<path d="M27.8621 19.0559C27.9136 18.1084 28.122 17.2601 28.578 16.4874C28.679 16.3189 28.7886 16.1559 28.9063 15.9989C29.2424 15.5477 29.6334 15.4484 29.9706 15.7124C30.3079 15.9763 30.2586 16.3215 30.0031 16.7976C29.7107 17.3447 29.4127 17.9256 29.3018 18.528C29.1024 19.6154 29.3869 20.5935 30.2071 21.4124C30.8367 22.0408 31.4708 22.5698 32.3918 22.7041C34.3693 22.9917 36.1955 21.6606 36.5641 19.6155C36.9002 17.735 35.5983 15.7801 33.7094 15.4258C33.2007 15.33 32.6562 15.3785 32.1341 15.4258C31.612 15.4732 31.3028 15.3401 31.2143 14.9374C31.1213 14.511 31.3532 14.22 31.8775 14.106C34.59 13.5194 37.4246 15.5443 37.7775 18.3238C38.0979 20.8394 36.7534 23.0346 34.3816 23.8716C34.3361 23.8841 34.2936 23.9057 34.2566 23.9352C34.2197 23.9647 34.189 24.0014 34.1665 24.0431C34.5351 24.0656 34.9037 24.1074 35.2723 24.1085C37.6475 24.1085 40.0238 24.0893 42.3991 24.1198C42.8934 24.1158 43.3751 24.2776 43.768 24.5797C44.161 24.8817 44.4428 25.3069 44.5692 25.7882C44.8572 26.7865 44.5255 27.8187 43.6729 28.3906C43.3122 28.6298 42.8741 28.7505 42.4618 28.9298C43.1887 29.3841 44.0462 29.5788 44.8964 29.4826C45.0084 29.4713 45.1205 29.4431 45.2325 29.4363C45.6358 29.4138 45.9395 29.6394 45.9988 30.0003C46.0616 30.3839 45.8386 30.711 45.4218 30.79C44.4281 30.9928 43.3964 30.8821 42.4674 30.473C41.9977 30.259 41.5506 29.9979 41.133 29.6935C39.5858 28.5858 37.8044 28.579 36.2638 29.7048C34.1452 31.2525 31.8686 31.2841 29.7399 29.7533C28.5993 28.9332 27.387 28.6252 26.0224 29.0313C25.6112 29.1532 25.2762 28.9637 25.1586 28.5891C25.041 28.2146 25.2359 27.8796 25.6493 27.7442C26.8552 27.3337 28.1726 27.4122 29.322 27.9631C29.5796 28.0759 29.7477 28.0973 29.927 27.8582C30.1566 27.5525 30.4771 27.4825 30.8535 27.4836C34.5575 27.4938 38.2615 27.4836 41.9655 27.4836C42.1044 27.4836 42.2456 27.4904 42.3845 27.4769C42.6379 27.4578 42.8747 27.3424 43.0467 27.1541C43.2188 26.9657 43.3134 26.7186 43.3112 26.4627C43.3091 26.2069 43.2104 25.9614 43.0352 25.776C42.86 25.5906 42.6214 25.4792 42.3677 25.4644C42.1593 25.4475 41.9487 25.4577 41.7391 25.4577C39.5869 25.4577 37.4346 25.4509 35.2824 25.4577C33.2903 25.4656 31.6098 24.7515 30.2115 23.3268C29.1797 22.2765 28.1187 21.2545 27.0879 20.2043C25.6415 18.7311 23.8679 18.0497 21.8434 18.0339C18.6156 18.0091 15.3866 18.0226 12.1588 18.0339C11.5594 18.0339 11.1281 18.4648 11.1169 19.0221C11.1045 19.5963 11.5426 20.0373 12.1588 20.0531C12.6764 20.0655 13.1929 20.0531 13.7105 20.0588C14.1721 20.0655 14.4634 20.3329 14.4646 20.73C14.4657 21.127 14.1733 21.3989 13.7139 21.4068C13.1537 21.4147 12.5935 21.4215 12.0333 21.4068C11.4257 21.3863 10.8498 21.1288 10.4273 20.6886C10.0047 20.2485 9.7687 19.6602 9.76904 19.048C9.76904 17.7778 10.7695 16.6994 12.0322 16.6927C15.4572 16.6746 18.8822 16.6475 22.305 16.7073C24.2332 16.74 25.9518 17.4721 27.4442 18.7141L27.8621 19.0559ZM30.9051 28.8384C32.0378 29.7093 34.1217 29.6349 34.9597 28.8384H30.9051Z" fill="#717171"/>
<path d="M16.8822 27.6597L18.9213 28.9118C20.0585 29.6078 21.2472 29.724 22.4909 29.2333C22.6197 29.1826 22.7441 29.1126 22.8763 29.0709C23.2124 28.9581 23.4835 29.0833 23.6605 29.3777C23.7054 29.4375 23.7376 29.5059 23.7553 29.5786C23.773 29.6514 23.7759 29.727 23.7636 29.8009C23.7513 29.8748 23.7242 29.9454 23.684 30.0084C23.6437 30.0714 23.5911 30.1255 23.5295 30.1674C23.313 30.3431 23.0687 30.4807 22.8068 30.5746C21.3503 31.0653 19.9218 31.0044 18.5639 30.2238C18.164 29.9982 17.7797 29.7285 17.3898 29.4905C16.0106 28.658 14.6258 28.6084 13.2376 29.4702C12.822 29.7285 12.4097 29.9925 11.9895 30.2429C10.9855 30.8529 9.78835 31.0546 8.64182 30.807C8.19367 30.7167 7.95167 30.4212 8.00545 30.0173C8.05923 29.6135 8.38638 29.3608 8.83566 29.4533C9.97621 29.6891 10.9543 29.3315 11.8775 28.7065C12.8007 28.0816 13.8001 27.5649 14.9597 27.495C15.0911 27.4638 15.2091 27.3906 15.2958 27.2863C16.8229 25.76 18.3421 24.227 19.8703 22.7008C20.1201 22.4515 20.268 22.1818 20.1291 21.8367C19.9902 21.4915 19.681 21.4136 19.3359 21.417C18.3029 21.4261 17.2688 21.417 16.2347 21.417C15.6991 21.417 15.3944 21.1756 15.3854 20.7571C15.3764 20.3386 15.6901 20.069 16.2481 20.0679C17.3091 20.0679 18.3712 20.0679 19.4333 20.0679C20.3487 20.0679 21.0859 20.536 21.3828 21.3302C21.6976 22.174 21.5296 22.9376 20.8966 23.5784C19.6742 24.8192 18.444 26.0432 17.2183 27.2762C17.0873 27.4205 16.9607 27.5717 16.8822 27.6597Z" fill="#717171"/>
<path d="M32.5981 34.9063C31.3534 34.9063 30.2285 34.4833 29.2123 33.7139C28.1211 32.8893 26.8953 32.6795 25.6047 33.1048C25.1332 33.2769 24.6896 33.5183 24.2882 33.8211C22.2547 35.2718 19.875 35.2876 17.855 33.8132C17.1357 33.2875 16.3604 32.9536 15.4663 32.895C15.0182 32.8656 14.7751 32.5915 14.7829 32.1978C14.7907 31.8041 15.0507 31.5593 15.5201 31.5684C16.6819 31.5887 17.6488 32.1324 18.6157 32.7235C19.1404 33.0635 19.7136 33.321 20.3153 33.4872C21.4481 33.7681 22.5046 33.4657 23.4356 32.7664C24.2199 32.1764 25.0758 31.7669 26.0573 31.6304C26.736 31.5282 27.428 31.5626 28.0934 31.7314C28.7588 31.9003 29.3843 32.2003 29.9338 32.6141C30.494 33.0224 31.0766 33.3687 31.7656 33.5018C32.3145 33.6189 32.8821 33.6144 33.429 33.4886C33.9759 33.3628 34.4891 33.1186 34.933 32.7731C35.7435 32.1415 36.7056 31.7371 37.7216 31.6011C37.818 31.5887 37.9154 31.5751 38.0129 31.5706C38.5092 31.5435 38.8263 31.7692 38.8666 32.1741C38.907 32.5791 38.6123 32.8746 38.0947 32.9164C37.2271 32.9947 36.4006 33.3242 35.715 33.8651C34.8008 34.5532 33.7622 34.8769 32.5981 34.9063Z" fill="#717171"/>
<path d="M29.6547 36.7326C29.6435 37.3846 29.1696 37.635 28.6542 37.4534C28.1075 37.2605 27.5484 37.0451 26.9736 36.9842C25.9261 36.8713 25.0264 37.2977 24.185 37.9193C22.5874 39.0993 20.8384 39.3125 18.9999 38.5634C18.5797 38.3758 18.1808 38.1432 17.8101 37.8697C17.4459 37.6192 17.3865 37.2368 17.6061 36.9165C17.8257 36.5961 18.2156 36.5352 18.601 36.7901C20.3668 37.9554 21.905 37.899 23.6327 36.6649C25.3603 35.4308 27.2336 35.274 29.1696 36.199C29.4598 36.3321 29.6547 36.5307 29.6547 36.7326Z" fill="#717171"/>
<path d="M32.3202 38.9955C32.0961 38.9594 31.6647 38.9132 31.2468 38.8161C31.1516 38.8068 31.0595 38.777 30.9766 38.7289C30.8938 38.6808 30.822 38.6154 30.7663 38.5372C30.7105 38.459 30.6719 38.3696 30.6532 38.2752C30.6344 38.1807 30.6359 38.0833 30.6575 37.9895C30.6792 37.8957 30.7204 37.8076 30.7786 37.7311C30.8367 37.6546 30.9104 37.5915 30.9947 37.546C31.079 37.5005 31.172 37.4736 31.2675 37.4672C31.3629 37.4608 31.4586 37.4749 31.5482 37.5087C32.7381 37.8291 33.8002 37.5459 34.813 36.903C35.3956 36.533 35.7362 36.5645 35.9793 36.9391C36.2224 37.3136 36.0914 37.6745 35.5155 38.0671C34.6125 38.6751 33.612 38.9729 32.3202 38.9955Z" fill="#717171"/>
<path d="M41.8411 33.2774C41.8396 33.3648 41.8211 33.451 41.7865 33.5311C41.7519 33.6112 41.7019 33.6837 41.6395 33.7443C41.5771 33.805 41.5033 33.8527 41.4226 33.8846C41.3418 33.9166 41.2556 33.9322 41.1688 33.9305C40.7095 33.9249 40.128 33.3947 40.1403 32.992C40.1491 32.8152 40.2244 32.6483 40.3509 32.5254C40.4775 32.4024 40.6457 32.3325 40.8215 32.3298C41.2574 32.3343 41.85 32.8837 41.8411 33.2774Z" fill="#717171"/>
<path d="M13.4248 33.0089C13.4248 33.3958 12.8422 33.9215 12.4108 33.9226C12.2341 33.9203 12.0654 33.8479 11.9413 33.7212C11.8171 33.5946 11.7475 33.4238 11.7476 33.2458C11.7476 32.8589 12.329 32.331 12.7559 32.3298C12.9331 32.3336 13.1019 32.4066 13.2267 32.5333C13.3515 32.66 13.4225 32.8305 13.4248 33.0089Z" fill="#717171"/>
</g>
<defs>
<clipPath id="clip0_292_3">
<rect width="38" height="25" fill="white" transform="translate(8 14)"/>
</clipPath>
</defs>
</svg>
