<svg width="53" height="53" viewBox="0 0 53 53" fill="none" xmlns="http://www.w3.org/2000/svg">
<circle cx="26.5" cy="26.5" r="26" stroke="#717171"/>
<g clip-path="url(#clip0_292_2)">
<path d="M22.9429 24.6897C22.0047 25.3165 21.2811 26.0685 21.0364 27.1643C20.8521 27.9902 20.6948 28.8224 20.5061 29.6476C20.3349 30.3948 19.5547 30.9172 18.6926 30.8894C17.9296 30.8649 17.2559 30.3139 17.1538 29.5637C17.1099 29.2467 17.1699 28.9095 17.2217 28.5873C17.382 27.59 17.576 26.5983 17.728 25.5999C17.8665 24.6908 18.1135 23.829 18.6776 23.0737C19.0153 22.6201 19.4424 22.2577 19.8902 21.9124C20.836 21.1832 21.7742 20.4443 22.7178 19.7121C23.6429 18.9935 24.7069 18.7808 25.8673 18.8529C27.1963 18.9356 28.1192 19.6583 28.9103 20.6102C29.3311 21.1165 29.736 21.6353 30.1654 22.1347C30.7944 22.8669 31.6201 23.252 32.5734 23.4237C33.339 23.5614 34.1076 23.7016 34.8567 23.9048C35.5732 24.0996 36.0769 24.9251 35.992 25.6343C35.8903 26.4844 35.3292 27.0749 34.5024 27.1397C34.1921 27.1639 33.87 27.0951 33.5574 27.0445C32.3088 26.8428 31.0612 26.6319 29.8133 26.4222C29.6854 26.4006 29.5593 26.3691 29.4065 26.3369V27.0563C29.4065 27.794 29.4193 28.5317 29.4012 29.269C29.3926 29.6388 29.5067 29.9569 29.6842 30.2729C30.8812 32.4012 32.0748 34.5311 33.2651 36.6626C33.7079 37.453 34.1538 38.2416 34.5918 39.0346C35.1195 39.9898 34.7956 41.1353 33.8412 41.7141C32.949 42.2549 31.7443 42.0026 31.1063 41.1518C30.0592 39.755 29.0083 38.3606 27.9537 36.9686C27.4438 36.2911 26.935 35.6127 26.4273 34.9334C26.3766 34.8661 26.3237 34.8002 26.2573 34.7138C26.0599 35.1645 25.8482 35.5855 25.6883 36.0244C25.2837 37.1363 24.571 38.0146 23.6617 38.7809C22.6562 39.6299 21.6977 40.5316 20.717 41.4092C19.4743 42.5214 17.5269 41.9883 17.0847 40.4046C16.8791 39.6665 17.0416 38.9859 17.5704 38.4148C18.416 37.4995 19.2807 36.6044 20.1293 35.6931C20.5564 35.2348 21.0611 34.8295 21.3344 34.2569C21.5539 33.7959 21.7247 33.3112 21.8951 32.8291C22.2246 31.898 22.5406 30.9619 22.8562 30.0265C22.9057 29.8895 22.9333 29.7459 22.9381 29.6007C22.9452 27.9759 22.9429 26.3486 22.9429 24.6897ZM24.0186 26.2768C24.0186 27.0578 24.0186 27.8389 24.0186 28.6199C24.0155 29.3874 24.2616 30.1361 24.7215 30.7587C25.6658 32.0613 26.6033 33.3691 27.5641 34.66C29.0136 36.6073 30.4795 38.5429 31.9417 40.4811C32.0287 40.5921 32.1285 40.6928 32.2393 40.7813C32.5666 41.0504 33.3851 40.9951 33.6325 40.48C33.8164 40.0963 33.7706 39.7565 33.5687 39.4033C33.1371 38.6487 32.7148 37.889 32.2904 37.1305C31.0984 34.9992 29.906 32.8681 28.7133 30.7371C28.4881 30.3344 28.3279 29.9255 28.3294 29.4583C28.3354 27.8291 28.3316 26.1999 28.3316 24.5708C28.3316 24.5404 28.3316 24.51 28.3316 24.4792C28.3485 24.2076 28.5853 23.9795 28.854 23.9766C28.9244 23.9742 28.9945 23.9853 29.0604 24.0094C29.1264 24.0334 29.1868 24.0699 29.2382 24.1168C29.2897 24.1637 29.3311 24.2199 29.3603 24.2824C29.3894 24.3449 29.4056 24.4124 29.408 24.4811C29.4125 24.5722 29.408 24.6641 29.405 24.7553C29.3986 25.2448 29.3956 25.2594 29.8861 25.3564C30.5092 25.4798 31.1374 25.5787 31.7627 25.6859C32.5739 25.8221 33.3854 25.9564 34.1973 26.0886C34.5647 26.1483 34.817 25.9755 34.8928 25.62C34.972 25.2499 34.7201 24.9182 34.2776 24.8292C33.6242 24.6974 32.9701 24.5667 32.3136 24.4499C31.1295 24.2387 30.1218 23.7218 29.3408 22.8208C28.8814 22.2906 28.4517 21.736 28.001 21.1985C27.375 20.4517 26.6469 19.9025 25.5847 19.8959C24.7906 19.8908 24.0553 20.0237 23.423 20.511C22.3546 21.3347 21.2912 22.1646 20.2328 23.0005C19.5535 23.5354 19.1069 24.2204 18.9313 25.0577C18.807 25.6533 18.714 26.2552 18.61 26.8549C18.4749 27.6347 18.3394 28.4149 18.211 29.1958C18.1578 29.5191 18.3462 29.775 18.6577 29.8299C19.0499 29.8984 19.4083 29.6732 19.4875 29.2943C19.629 28.6269 19.7708 27.9598 19.8973 27.2895C20.1094 26.167 20.6187 25.2027 21.5085 24.4554C22.0189 24.026 22.5594 23.631 23.0848 23.2165C23.2725 23.0664 23.4747 22.9969 23.7063 23.1067C23.9379 23.2165 24.0212 23.4139 24.0201 23.6621C24.0156 24.5316 24.0186 25.4044 24.0186 26.2768ZM23.6395 31.0824C23.3059 32.0588 22.9756 33.0227 22.6479 33.9841C22.4438 34.594 22.1084 35.1544 21.6643 35.6276C20.5806 36.783 19.4934 37.9354 18.4025 39.0847C17.9814 39.5314 17.9844 40.2197 18.4073 40.6224C18.8577 41.0493 19.5295 41.0504 19.9953 40.6312C21.0559 39.6769 22.1184 38.7242 23.1828 37.7733C23.647 37.3604 24.0963 36.9379 24.3518 36.3638C24.7367 35.4991 25.1164 34.6326 25.4909 33.7645C25.5127 33.7139 25.4872 33.6231 25.4511 33.5734C24.8551 32.7474 24.2539 31.9251 23.6395 31.0824Z" fill="#717171"/>
<path d="M29.4066 15.1581C29.4082 15.9927 29.0703 16.7939 28.4671 17.3859C27.864 17.9779 27.0447 18.3123 26.1891 18.3158C24.3152 18.322 22.907 16.7704 22.94 15.1094C22.956 14.2723 23.311 13.4754 23.9273 12.8928C24.5437 12.3102 25.3714 11.9892 26.2296 12C28.0442 12.0121 29.4467 13.5293 29.4066 15.1581ZM26.1489 13.0551C24.9292 13.0918 23.9905 14.0374 24.0205 15.2031C24.0502 16.3538 25.044 17.2936 26.2037 17.2683C27.4017 17.242 28.3707 16.2612 28.3336 15.113C28.2934 13.9448 27.3139 13.0218 26.147 13.0551H26.1489Z" fill="#717171"/>
</g>
<defs>
<clipPath id="clip0_292_2">
<rect width="19" height="30" fill="white" transform="translate(17 12)"/>
</clipPath>
</defs>
</svg>
