<svg width="53" height="53" viewBox="0 0 53 53" fill="none" xmlns="http://www.w3.org/2000/svg">
<circle cx="26.5" cy="26.5" r="26" stroke="#717171"/>
<g clip-path="url(#clip0_292_4)">
<path d="M23.1965 42H13.0627C12.2802 41.7324 11.9984 41.1778 12 40.3571C12.0141 31.4258 12.0172 22.4939 12.0094 13.5616C12.0025 13.3962 12.0122 13.2306 12.0383 13.0671C12.1753 12.392 12.7066 12.0055 13.4782 12.0055C22.4387 12.0055 31.3998 12.0024 40.3614 11.9961C41.1776 11.9961 41.7324 12.2746 42 13.0593V16.867C41.8388 17.0485 41.6612 17.2003 41.3982 17.0955C41.1353 16.9906 41.1181 16.7551 41.1189 16.5087C41.1236 15.5034 41.1189 14.4981 41.1189 13.4927C41.1189 13.0233 40.9827 12.8841 40.5109 12.8841H35.2976C35.2123 12.8841 35.1278 12.8935 35.0167 12.8997V13.2306C35.0167 14.3924 35.0167 15.5542 35.0167 16.716C35.0167 17.1706 34.8782 17.5563 34.5393 17.8661C34.4611 17.9443 34.3828 18.0225 34.3046 18.1149L34.519 18.2839C36.4636 19.7851 37.9187 21.8297 38.7001 24.1585C38.8026 24.4582 38.7501 24.6717 38.5263 24.8916C37.7438 25.6559 36.9808 26.4375 36.2014 27.205C36.1185 27.279 36.0527 27.3702 36.0085 27.4722C35.9643 27.5742 35.9428 27.6845 35.9455 27.7957C35.9542 28.8988 35.9455 30.0019 35.9573 31.105C35.9657 31.2541 36.0251 31.3958 36.1255 31.5063C36.5551 31.9601 37.0035 32.3951 37.4457 32.8363C37.4942 32.8848 37.5443 32.931 37.5896 32.9819C37.7743 33.1884 37.7853 33.438 37.6202 33.6132C37.455 33.7885 37.1749 33.8002 36.9691 33.5984C36.4832 33.1219 36.0058 32.6361 35.5058 32.1354C34.9032 32.7393 34.3382 33.3472 33.7255 33.9027C33.3342 34.254 33.1582 34.6264 33.2059 35.1544C33.2497 35.6348 33.2153 36.1222 33.2153 36.6221C34.6818 36.6221 36.106 36.6221 37.5302 36.6135C37.6123 36.6135 37.7227 36.4993 37.7696 36.4109C37.9747 36.0252 38.2767 35.7662 38.7087 35.6825C38.9021 35.6565 39.0975 35.6481 39.2924 35.6575C39.895 35.6575 40.4968 35.6575 41.1251 35.6575V18.7306C41.1251 18.6234 41.0954 18.5013 41.1361 18.4121C41.1971 18.2791 41.2863 18.107 41.4029 18.0679C41.5328 18.0233 41.7097 18.0984 41.8607 18.1415C41.9163 18.1571 41.9562 18.2291 42.0039 18.2752V40.9438C41.9311 41.1942 41.7962 41.4221 41.6118 41.6064C41.4274 41.7908 41.1995 41.9256 40.9491 41.9985H24.6614C24.3445 41.7465 24.2654 41.4649 24.4955 41.2732C24.6352 41.1741 24.8031 41.1226 24.9744 41.1261C27.5119 41.1167 30.0494 41.1167 32.5869 41.1261C32.7802 41.1261 32.8811 41.0706 32.9664 40.8969C33.2442 40.3281 33.5479 39.7711 33.8272 39.2031C34.1066 38.6351 34.5479 38.3801 35.1638 38.3824C35.6224 38.3824 36.0809 38.3824 36.5395 38.3824C36.6177 38.3824 36.7461 38.373 36.7743 38.3237C36.9253 38.0703 37.052 37.8027 37.1945 37.5258H16.8134C16.9176 37.7559 17.0352 37.9798 17.1655 38.1962C17.2021 38.2456 17.2482 38.287 17.3012 38.3181C17.3542 38.3491 17.4129 38.3692 17.4738 38.3769C17.8925 38.3973 18.3127 38.3973 18.7321 38.3824C19.4364 38.3574 19.9247 38.6414 20.2268 39.2853C20.4827 39.8329 20.7824 40.3579 21.0469 40.9016C21.1322 41.0776 21.2355 41.1363 21.4272 41.1285C21.9155 41.1136 22.4038 41.1285 22.8913 41.1214C23.1425 41.1214 23.3679 41.1512 23.4657 41.4195C23.5635 41.6879 23.3968 41.8561 23.1965 42ZM23.6731 36.6127V36.2591C23.6731 35.0582 23.6903 33.8573 23.6652 32.6603C23.6535 32.0704 23.8327 31.6026 24.2741 31.2091C24.645 30.8781 24.9783 30.5049 25.3367 30.1607C25.4052 30.1002 25.4587 30.0246 25.4928 29.9399C25.5269 29.8551 25.5407 29.7636 25.5331 29.6725C25.5206 29.2727 25.5198 28.8722 25.5331 28.4724C25.5558 27.9326 25.8321 27.55 26.3243 27.3411C26.5471 27.2364 26.796 27.2002 27.0393 27.2371C27.2827 27.274 27.5097 27.3824 27.6914 27.5484C27.8252 27.6619 27.9355 27.8027 28.0717 27.913C28.5913 28.3339 28.776 28.8706 28.7572 29.538C28.722 30.5714 28.7415 31.6065 28.7572 32.6415C28.7676 32.7902 28.8267 32.9312 28.9254 33.0429C29.1839 33.3355 29.4596 33.6124 29.751 33.8722C30.1884 34.2571 30.37 34.7249 30.3387 35.3023C30.316 35.7365 30.3387 36.1731 30.3387 36.6057H32.3388C32.3388 35.9689 32.3474 35.354 32.3388 34.7414C32.3314 34.5265 32.3704 34.3126 32.453 34.1142C32.5356 33.9157 32.66 33.7374 32.8178 33.5913C33.508 32.9146 34.1817 32.2222 34.8735 31.547C34.9441 31.4823 34.9994 31.4027 35.0353 31.3139C35.0712 31.2251 35.0867 31.1294 35.0808 31.0338C35.0714 29.9706 35.0879 28.9058 35.0715 27.8426C35.0605 27.6091 35.1008 27.376 35.1896 27.1597C35.2784 26.9434 35.4136 26.7493 35.5856 26.5908C36.2812 25.9204 36.9519 25.2241 37.6421 24.5481C37.7861 24.4073 37.8228 24.2946 37.7485 24.0959C37.044 22.2018 35.8543 20.5259 34.2983 19.236C34.2279 19.1773 34.1489 19.128 34.0354 19.0474C34.0354 19.3674 34.0448 19.6389 34.0354 19.908C34.0277 20.2128 33.913 20.5052 33.7115 20.7341C33.5099 20.9629 33.2343 21.1136 32.9328 21.1598C32.097 21.3068 30.7495 20.1318 30.7049 19.218C30.7049 19.1499 30.7049 19.0818 30.7049 19.0138V17.9005C30.7049 17.1901 30.7049 17.1729 30.021 17.0094C29.3832 16.8584 28.7345 16.7497 28.0513 16.6182V17.047C28.0513 18.5796 28.056 20.1122 28.0513 21.6448C28.0474 22.5336 27.4018 23.1391 26.599 23.0804C26.0254 23.0382 25.0073 22.0814 25.0339 21.4203C25.0527 20.8946 25.0339 20.3665 25.0378 19.8399C25.0378 19.5442 25.2225 19.3502 25.4698 19.3439C25.7296 19.3385 25.9095 19.538 25.9127 19.8517C25.9174 20.3211 25.9127 20.7905 25.9127 21.2599C25.9127 21.5611 26.3353 22.1041 26.6224 22.1831C26.7323 22.2108 26.8486 22.1943 26.9464 22.1371C27.0442 22.0799 27.1156 21.9865 27.1452 21.8772C27.1682 21.7727 27.1779 21.6657 27.1741 21.5588C27.1741 18.7767 27.1741 15.9947 27.1741 13.2127C27.1741 13.1109 27.1655 13.0085 27.1616 12.9114H25.9095V13.2455C25.9095 14.769 25.9095 16.292 25.9095 17.8144C25.9095 17.9115 25.9416 18.0366 25.8939 18.1008C25.7937 18.2369 25.6591 18.4215 25.5222 18.4372C25.3853 18.4528 25.2037 18.3097 25.0863 18.1915C25.0214 18.1266 25.0355 17.9709 25.0331 17.8559C25.0276 17.5093 25.0331 17.1635 25.0331 16.7606C24.4799 16.9077 23.9829 17.0446 23.4837 17.1698C23.3131 17.2128 23.2591 17.2973 23.2614 17.4741C23.2716 18.2455 23.2654 19.0161 23.2661 19.7875C23.2703 19.9588 23.2406 20.1292 23.1787 20.289C23.1168 20.4488 23.0239 20.5948 22.9054 20.7185C22.6769 20.9595 22.4468 21.1989 22.2011 21.4226C21.7958 21.7903 21.3239 21.8834 20.816 21.6761C20.3082 21.4688 20.0194 21.0596 19.9936 20.5026C19.9764 20.1114 19.9936 19.7202 19.9873 19.3291C19.9873 19.2508 19.9756 19.1679 19.9662 19.0443C18.2212 20.4447 16.9855 22.1502 16.2492 24.2078C16.2218 24.286 16.2828 24.4292 16.3493 24.4981C16.8799 25.0457 17.4206 25.58 17.9606 26.1167C19.0561 27.2003 18.9473 27.0196 18.9497 28.5741C18.9497 28.5929 18.9497 28.6124 18.9497 28.632C18.9364 28.9387 18.7791 29.1171 18.5209 29.1194C18.2626 29.1217 18.0881 28.9465 18.0756 28.6437C18.0646 28.3707 18.0607 28.0961 18.0756 27.8238C18.0825 27.7076 18.0625 27.5914 18.0172 27.4842C17.9719 27.377 17.9024 27.2817 17.8142 27.2058C17.0481 26.4531 16.3 25.6825 15.53 24.937C15.282 24.696 15.217 24.4675 15.3344 24.1335C16.1498 21.7708 17.5325 19.8133 19.5178 18.3011C19.8911 18.0163 20.0006 17.7339 20.0061 17.2903C20.0116 16.8263 19.9208 16.468 19.5444 16.1754C19.1179 15.8453 18.9833 15.3821 18.9966 14.8509C19.0146 14.2102 19.0006 13.5678 19.0006 12.9083C18.8785 12.9028 18.7838 12.895 18.6875 12.895H13.5267C13.0142 12.895 12.8898 13.0194 12.8898 13.5334V35.6512C13.015 35.6575 13.1096 35.6653 13.2028 35.6653C13.7983 35.6653 14.3938 35.6653 14.9893 35.6653C15.5511 35.6653 15.9674 35.9055 16.2202 36.4039C16.2485 36.4798 16.3013 36.5442 16.3704 36.5867C16.4394 36.6292 16.5207 36.6475 16.6013 36.6386C17.9097 36.6292 19.2173 36.6386 20.5257 36.6331C20.6094 36.6331 20.6924 36.6198 20.7941 36.612C20.7941 36.2396 20.755 35.8844 20.8019 35.5409C20.9099 34.7539 20.6509 34.1663 20.0327 33.6633C19.4849 33.2142 19.0201 32.6681 18.4982 32.1447C18.0858 32.5617 17.6835 32.9451 17.3134 33.3574C17.1932 33.503 17.1203 33.6817 17.1045 33.8698C17.0724 34.2375 17.099 34.6107 17.0927 34.9815C17.0873 35.2984 16.9128 35.4987 16.6553 35.5018C16.3978 35.5049 16.221 35.3054 16.2171 34.9902C16.2124 34.599 16.2233 34.2078 16.2171 33.8166C16.2103 33.6162 16.2472 33.4167 16.3252 33.2319C16.4031 33.0471 16.5203 32.8814 16.6686 32.7464C17.088 32.338 17.5043 31.9257 17.9081 31.5017C17.9925 31.4017 18.0441 31.2783 18.056 31.148C18.0803 30.9133 18.056 30.6786 18.0701 30.4439C18.0708 30.3851 18.0833 30.3269 18.1068 30.273C18.1304 30.219 18.1645 30.1703 18.2071 30.1298C18.2498 30.0892 18.3002 30.0576 18.3553 30.0369C18.4104 30.0161 18.4691 30.0066 18.5279 30.0089C18.7572 30.0215 18.9246 30.199 18.9372 30.4588C18.9505 30.6536 18.9505 30.8491 18.9372 31.044C18.9184 31.2583 18.9959 31.4062 19.1485 31.5548C19.8457 32.2378 20.5296 32.9349 21.223 33.6218C21.4828 33.88 21.6518 34.1781 21.6698 34.5466C21.6823 34.8 21.6745 35.0543 21.6745 35.3078C21.6745 35.7436 21.6745 36.1793 21.6745 36.6206L23.6731 36.6127ZM29.4505 36.6127C29.4505 36.0534 29.4622 35.5096 29.4419 34.9698C29.4372 34.8517 29.3363 34.7195 29.2463 34.6256C28.8886 34.2516 28.5255 33.8823 28.1507 33.5303C28.0562 33.4475 27.9817 33.3444 27.9328 33.2286C27.8839 33.1129 27.8618 32.9876 27.8682 32.8622C27.8815 31.8451 27.8354 30.828 27.8878 29.8173C27.9199 29.1914 27.7563 28.722 27.2657 28.3433C27.0779 28.197 26.9159 28.0507 26.6694 28.154C26.4229 28.2572 26.3955 28.4622 26.408 28.6915C26.4143 28.7885 26.408 28.8863 26.408 28.984C26.408 30.7219 26.408 32.4595 26.408 34.1968C26.408 34.5951 26.2593 34.7993 25.9729 34.8047C25.6865 34.8102 25.5316 34.6068 25.53 34.2133C25.53 33.7439 25.53 33.2745 25.53 32.8051V31.2951L25.433 31.227C25.2217 31.4618 25.0214 31.7105 24.7968 31.9312C24.7149 32.0068 24.6503 32.0992 24.6075 32.2021C24.5647 32.305 24.5446 32.4159 24.5487 32.5273C24.5566 33.7963 24.5487 35.0653 24.5487 36.3342V36.6135L29.4505 36.6127ZM20.1783 41.1214C19.9044 40.5894 19.6469 40.1106 19.4106 39.6217C19.283 39.3565 19.0913 39.2547 18.8065 39.2587C18.2407 39.2673 17.6749 39.2532 17.11 39.2649C16.9883 39.2761 16.8663 39.248 16.7619 39.1846C16.6575 39.1212 16.5762 39.0259 16.5301 38.9129C16.2898 38.4239 16.0379 37.9396 15.7851 37.4561C15.2194 36.3773 15.4838 36.5533 14.2717 36.5384C13.8178 36.5329 13.3632 36.5384 12.8921 36.5384C12.8921 37.9545 12.8874 39.3283 12.8968 40.7021C12.8968 40.9704 13.0924 41.1183 13.3953 41.1206C14.1066 41.1206 14.8187 41.1206 15.5308 41.1206L20.1783 41.1214ZM33.8351 41.1214H40.5382C40.9835 41.1214 41.1236 40.9767 41.1236 40.519C41.1236 39.2892 41.1236 38.0593 41.1236 36.8295V36.5408C40.3739 36.5408 39.672 36.533 38.9692 36.5494C38.8511 36.5494 38.6805 36.6276 38.6265 36.7238C38.326 37.2543 38.0537 37.8004 37.7501 38.3832H38.067C38.3886 38.3832 38.7118 38.3738 39.0326 38.3895C39.3081 38.402 39.4842 38.5937 39.4795 38.8354C39.4748 39.0772 39.2995 39.2391 39.0436 39.2587C38.956 39.2649 38.8683 39.2587 38.7799 39.2587H35.2029C34.9893 39.2587 34.7843 39.2813 34.6724 39.4934C34.3985 40.0191 34.1293 40.5472 33.8319 41.1214H33.8351ZM31.6033 12.8966C31.593 12.9242 31.5854 12.9528 31.5806 12.9819C31.5806 15.0293 31.5759 17.0775 31.5806 19.1249C31.5876 19.2592 31.6385 19.3875 31.7253 19.4902C31.9231 19.7318 32.1461 19.9516 32.3905 20.1458C32.5165 20.2397 32.7481 20.2921 32.885 20.2405C33.0079 20.1943 33.1198 19.9862 33.1409 19.8352C33.1831 19.565 33.1849 19.29 33.1464 19.0193C33.0376 18.2932 33.2701 17.7292 33.864 17.2981C34.0776 17.1416 34.1449 16.9249 34.1434 16.6589C34.134 15.4987 34.1395 14.3385 34.1395 13.1775V12.8927L31.6033 12.8966ZM19.8723 12.8966C19.8723 13.366 19.8668 13.8033 19.8723 14.2407C19.8903 15.519 19.7158 15.0919 20.5907 15.9822C20.6814 16.0684 20.7527 16.173 20.7995 16.2891C20.8463 16.4052 20.8677 16.53 20.8622 16.655C20.8512 17.8942 20.8622 19.1327 20.8567 20.3719C20.8567 20.5863 20.9217 20.7584 21.1251 20.8468C21.3286 20.9352 21.5047 20.8703 21.6549 20.7162C21.8052 20.5621 21.9358 20.4165 22.0916 20.2835C22.3091 20.0981 22.3842 19.8759 22.3827 19.5896C22.3733 17.4632 22.378 15.3359 22.378 13.2095V12.8966H19.8723ZM28.0615 12.8966V15.7217L30.6791 16.2364V12.8966H28.0615ZM23.2724 12.8966V16.2716C23.8202 16.1504 24.35 16.0369 24.8766 15.9047C24.9408 15.8891 25.0159 15.7569 25.0175 15.6763C25.0308 15.1795 25.0245 14.6819 25.0245 14.1843V12.8966H23.2724Z" fill="#717171"/>
</g>
<defs>
<clipPath id="clip0_292_4">
<rect width="30" height="30" fill="white" transform="translate(12 12)"/>
</clipPath>
</defs>
</svg>
