<svg width="43" height="43" viewBox="0 0 43 43" fill="none" xmlns="http://www.w3.org/2000/svg">
<g clip-path="url(#clip0_250_335)">
<path d="M21.4954 0C24.4875 0.0575528 27.4806 0.100974 30.4717 0.18074C32.1074 0.226176 33.7208 0.469505 35.2623 1.04301C39.4157 2.58785 41.7998 5.62502 42.5696 9.91523C42.8312 11.4707 42.9628 13.0452 42.9631 14.6224C43.0136 19.2549 43.0076 23.8884 42.9691 28.5219C42.954 30.4656 42.868 32.4143 42.3218 34.3065C40.9795 38.9673 37.8539 41.6702 33.1371 42.5739C30.6306 43.0535 28.0795 42.9889 25.5436 42.9939C21.8778 43.001 18.211 43.0101 14.5452 42.9606C12.5819 42.9334 10.6145 42.8597 8.70064 42.3084C4.0284 40.9695 1.30335 37.8526 0.433439 33.1403C0.143131 31.5662 0.0541234 29.9385 0.0359159 28.3331C-0.0146604 23.7511 -0.00758466 19.1681 0.0308534 14.5851C0.0480493 12.6081 0.132009 10.624 0.691383 8.70157C2.04582 4.06605 5.17345 1.38329 9.86491 0.483649C12.4706 -0.0211997 15.1249 0.0797597 17.7609 0.0565367C19.0051 0.0434106 20.2492 0.0565367 21.4944 0.0565367L21.4954 0ZM4.20745 21.4904H4.27319C4.27319 22.5314 4.24588 23.5724 4.27825 24.6124C4.35311 27.0094 4.3713 29.4125 4.57159 31.8004C4.75771 34.0117 5.70551 35.8988 7.60617 37.1831C8.98386 38.1121 10.5578 38.4957 12.1864 38.5392C16.1687 38.6401 20.1521 38.7128 24.1355 38.7078C26.6876 38.7078 29.2508 38.6623 31.7887 38.419C34.7768 38.1343 37.0214 36.6429 37.9985 33.6734C38.3187 32.7369 38.499 31.7585 38.5336 30.7695C38.6267 25.7884 38.6718 20.8055 38.6691 15.8209C38.6818 14.1129 38.5712 12.4061 38.3384 10.7139C37.869 7.53436 35.8945 5.46348 32.7527 4.80919C31.5006 4.56206 30.2278 4.43393 28.9514 4.42651C24.9002 4.36189 20.8481 4.32555 16.7979 4.36694C14.7344 4.38714 12.6507 4.4457 10.6175 4.74154C7.71238 5.16359 5.71766 6.84171 4.88719 9.7143C4.64214 10.551 4.49849 11.4141 4.45932 12.285C4.33693 15.3504 4.28534 18.4209 4.20745 21.4904Z" fill="black"/>
<path d="M32.2635 21.2148C32.5174 27.0589 27.8199 32.0185 21.7922 32.275C15.9638 32.5203 10.983 27.8202 10.7393 21.8458C10.4995 15.9896 15.19 11.0269 21.2096 10.7866C27.0552 10.5513 32.0016 15.2172 32.2635 21.2148ZM27.9605 21.5076C27.9522 19.7998 27.2663 18.1649 26.0529 16.9609C24.8395 15.7569 23.1976 15.082 21.4867 15.0839C19.7767 15.0876 18.1379 15.7678 16.9293 16.9755C15.7208 18.1832 15.0411 19.8198 15.0393 21.5268C15.0399 22.3763 15.2086 23.2173 15.5355 24.0017C15.8624 24.786 16.3412 25.4982 16.9443 26.0975C17.5475 26.6968 18.2633 27.1714 19.0506 27.494C19.8379 27.8167 20.6812 27.981 21.5323 27.9777C23.2431 27.9657 24.8795 27.2782 26.0841 26.0654C27.2886 24.8527 27.9632 23.2133 27.9605 21.5056V21.5076Z" fill="black"/>
<path d="M35.4978 10.2464C35.4914 10.9601 35.2037 11.6426 34.6968 12.146C34.19 12.6495 33.5049 12.9334 32.7899 12.9363C32.0837 12.9267 31.409 12.643 30.9087 12.1455C30.4084 11.6479 30.1217 10.9755 30.1094 10.2706C30.1085 9.55702 30.3896 8.87183 30.8916 8.36373C31.3936 7.85564 32.0761 7.56562 32.7909 7.55658C33.5059 7.55921 34.1911 7.84307 34.6978 8.3466C35.2045 8.85013 35.4919 9.53274 35.4978 10.2464Z" fill="black"/>
</g>
<defs>
<clipPath id="clip0_250_335">
<rect width="43" height="43" fill="white"/>
</clipPath>
</defs>
</svg>
