<svg width="305" height="29" viewBox="0 0 305 29" fill="none" xmlns="http://www.w3.org/2000/svg">
<g clip-path="url(#clip0_31_187)">
<path d="M7.19999 27.5859H-0.0102539V0.957031H6.02232C8.93846 0.957031 11.0992 1.56172 12.5047 2.77109C13.1706 3.30366 13.7083 3.98996 14.0753 4.7758C14.4424 5.56164 14.6287 6.42549 14.6197 7.29911C14.6224 8.07206 14.4549 8.83541 14.13 9.53056C13.805 10.2257 13.3312 10.8342 12.745 11.3093C11.4952 12.4044 9.83002 13.0282 7.74935 13.1805V13.3341C10.2214 13.3341 12.254 14.0161 13.8471 15.3803C15.4403 16.7444 16.2414 18.368 16.2505 20.2511C16.2813 21.2759 16.0776 22.2937 15.6561 23.2206C15.2347 24.1475 14.6076 24.957 13.8265 25.5826C12.2014 26.9181 9.99252 27.5859 7.19999 27.5859ZM3.93134 26.9753H5.95364C7.88553 26.9753 9.37336 26.3801 10.4171 25.1898C11.4609 23.9994 11.9805 22.452 11.9759 20.5475C11.9992 18.8831 11.4528 17.2642 10.4343 15.9802C9.40425 14.6708 7.91643 13.8495 5.97081 13.5162L6.00859 12.9413C7.32405 12.837 8.54621 12.195 9.40769 11.1558C10.2389 10.1039 10.6756 8.77437 10.6369 7.41338C10.6813 5.90776 10.1758 4.44052 9.22229 3.30674C8.27924 2.19974 6.82804 1.64504 4.86868 1.64266H3.91417L3.93134 26.9753Z" fill="white"/>
<path d="M35.3441 27.5859H21.1982V0.957031H34.7912V2.5604L25.0574 1.64266V12.3556H34.2385V13.0448H25.0574V26.9895L35.9655 25.9575L35.3441 27.5859Z" fill="white"/>
<path d="M36.9956 0.957031H40.999L48.2539 16.0087L54.5714 0.957031H56.4083L48.4393 16.8122V27.5859H44.7449V16.8515L36.9956 0.957031Z" fill="white"/>
<path d="M71.5292 0.689212C75.4204 0.689212 78.5666 1.99857 80.9678 4.6173C83.3689 7.23603 84.5694 10.4606 84.5694 14.2911C84.5694 18.1002 83.3506 21.3141 80.9128 23.9328C78.4751 26.5515 75.3472 27.8609 71.5292 27.8609C67.4365 27.8609 64.2148 26.5753 61.864 24.0042C59.5133 21.4331 58.3379 18.1954 58.3379 14.2911C58.3379 10.444 59.5877 7.2146 62.0872 4.60301C64.5868 1.99143 67.7341 0.686832 71.5292 0.689212ZM71.5635 27.2431C74.4797 27.2431 76.6771 26.0706 78.1558 23.7257C79.6344 21.3807 80.376 18.2228 80.3806 14.2518C80.3806 10.2571 79.6218 7.092 78.1042 4.75657C76.5867 2.42114 74.395 1.25581 71.5292 1.26057C68.6634 1.26057 66.4523 2.46518 64.8958 4.87441C63.3393 7.28364 62.561 10.3963 62.561 14.2125C62.561 18.3644 63.3027 21.5783 64.7859 23.8542C66.2692 26.1301 68.5284 27.2597 71.5635 27.2431Z" fill="white"/>
<path d="M109.513 23.04L109.256 0.957025H110.801L109.918 29H109.733L90.5056 5.65645L90.6533 27.5859H89.1494L90.1417 0.00714111H90.3614L109.513 23.04Z" fill="white"/>
<path d="M116.418 27.5859V0.992737H123.065C127.403 0.992737 130.82 2.18307 133.317 4.56373C135.815 6.94438 137.063 10.0392 137.063 13.8483C137.063 17.7978 135.778 21.0784 133.208 23.6899C130.637 26.3015 127.269 27.6109 123.103 27.618L116.418 27.5859ZM122.444 1.64266H120.274V26.936H122.811C124.176 26.9689 125.531 26.6861 126.778 26.108C128.024 25.53 129.132 24.6712 130.021 23.5935C131.921 21.3652 132.871 18.1621 132.871 13.984C132.894 12.3068 132.689 10.6346 132.263 9.01675C131.941 7.7468 131.399 6.5487 130.663 5.48147C130.008 4.58432 129.199 3.82048 128.277 3.22818C127.405 2.6575 126.449 2.2378 125.448 1.98547C124.462 1.75365 123.454 1.63865 122.444 1.64266Z" fill="white"/>
<path d="M146.409 0.957031H150.413L157.654 16.0087L163.961 0.957031H165.801L157.829 16.8122V27.5859H154.155V16.8515L146.409 0.957031Z" fill="white"/>
<path d="M168.637 0.957031H172.455V20.1368C172.455 24.8743 174.182 27.2431 177.636 27.2431C178.43 27.2599 179.218 27.1042 179.95 26.786C180.535 26.5358 181.056 26.1498 181.475 25.6576C181.856 25.1574 182.143 24.5867 182.32 23.9756C182.516 23.3607 182.652 22.7265 182.725 22.083C182.787 21.4363 182.816 20.7867 182.814 20.1368V0.957031H186.711V17.8621C186.711 24.5279 183.673 27.8609 177.599 27.8609C176.033 27.9086 174.477 27.5952 173.042 26.9431C171.898 26.4261 170.931 25.5609 170.268 24.4613C169.695 23.4828 169.268 22.4197 169.001 21.3081C168.75 20.1747 168.628 19.0145 168.637 17.8514V0.957031Z" fill="white"/>
<path d="M213.492 17.7657H214.089C214.089 21.051 213.128 23.5507 211.205 25.2648C209.282 26.9789 206.837 27.8442 203.868 27.8609C199.899 27.8609 196.809 26.7277 194.597 24.4613C192.386 22.1949 191.279 18.9727 191.274 14.7946C191.274 10.338 192.425 6.87418 194.728 4.40306C197.031 1.93193 199.944 0.696369 203.469 0.696369C205.093 0.657502 206.71 0.907503 208.252 1.43557C209.453 1.83486 210.543 2.53083 211.428 3.46389C212.131 4.22896 212.692 5.12239 213.083 6.09928C213.431 6.98479 213.612 7.93166 213.615 8.88822C213.621 9.19465 213.608 9.50114 213.578 9.80597H209.869C209.869 6.72539 209.312 4.53399 208.197 3.23177C207.083 1.92955 205.522 1.28082 203.514 1.28559C201.161 1.28559 199.238 2.3426 197.746 4.45663C196.254 6.57065 195.506 9.81787 195.504 14.1983C195.504 22.8067 198.492 27.1122 204.469 27.1146C207.135 27.1146 209.31 26.2932 210.992 24.6506C212.675 23.0079 213.508 20.713 213.492 17.7657Z" fill="white"/>
<path d="M236.819 27.5859L234.415 21.0153H222.639L219.919 27.5859H216.143L227.312 0.649902H227.531L238.59 27.5859H236.819ZM228.96 5.69214L222.896 20.4046H234.247L228.96 5.69214Z" fill="white"/>
<path d="M257.759 0.957031V2.5604L249.969 1.64266V27.5859H246.075V1.64266L238.837 2.5604V0.957031L248.06 1.0713L257.759 0.957031Z" fill="white"/>
<path d="M258.013 27.5859L269.072 0.649902H269.292L280.461 27.5859H276.684L273.965 21.0153H262.157L259.754 27.5859H258.013ZM262.35 20.4046H273.701L267.651 5.69214L262.35 20.4046Z" fill="white"/>
<path d="M303.702 23.04L303.445 0.957028H304.99L304.104 29H303.922L284.695 5.65645L284.842 27.5859H283.335L284.327 0H284.547L303.702 23.04Z" fill="white"/>
</g>
<defs>
<clipPath id="clip0_31_187">
<rect width="305" height="29" fill="white"/>
</clipPath>
</defs>
</svg>
