<svg width="19" height="19" viewBox="0 0 19 19" fill="none" xmlns="http://www.w3.org/2000/svg">
<g clip-path="url(#clip0_178_1829)">
<path d="M0 6.34563C0.0839123 6.24329 0.160661 6.14094 0.251736 6.05394C0.796143 5.50535 1.34567 4.96188 1.88905 4.4092C1.9574 4.33573 1.99732 4.24028 2.00162 4.14002C2.00878 2.92821 2.00673 1.71538 2.00673 0.503574C2.00673 0.113626 2.12134 1.746e-05 2.51839 1.746e-05H7.67388C7.73591 -0.00357305 7.7981 -0.00357305 7.86013 1.746e-05C7.95008 0.0106472 8.03314 0.0535258 8.09391 0.120707C8.15469 0.187888 8.18906 0.27482 8.19066 0.365403C8.1903 0.456061 8.15681 0.543461 8.09649 0.611137C8.03618 0.678814 7.9532 0.722097 7.8632 0.732836C7.77061 0.740178 7.67765 0.741887 7.58485 0.737953H2.74864V0.935485C2.74864 3.34682 2.74864 5.75815 2.74864 8.16949C2.74848 8.26426 2.78265 8.35589 2.84483 8.42741C5.02792 10.6224 7.2168 12.8144 9.41148 15.0033C9.42888 15.0207 9.44832 15.0361 9.47902 15.0647C9.52712 15.0197 9.58135 14.9777 9.62229 14.9317C11.7774 12.7762 13.9332 10.6214 16.0897 8.46732C16.1435 8.41909 16.186 8.35962 16.2143 8.29312C16.2426 8.22662 16.256 8.15471 16.2534 8.08249C16.2486 5.71414 16.2486 3.3458 16.2534 0.977449V0.737953H11.2391C10.9669 0.737953 10.8104 0.614111 10.7971 0.394062C10.7886 0.300664 10.8166 0.207607 10.8751 0.134358C10.9337 0.0611084 11.0183 0.0133389 11.1112 0.00104195C11.1666 -0.00476686 11.2224 -0.00647606 11.278 -0.00407424H16.5082C16.8766 -0.00407424 16.9984 0.11772 16.9984 0.484128C16.9984 1.68979 16.9984 2.89649 16.9984 4.10215C16.995 4.16238 17.0051 4.22261 17.0277 4.27852C17.0503 4.33443 17.0851 4.38465 17.1294 4.42557C17.6932 4.9803 18.2479 5.54527 18.8117 6.10102C18.8767 6.16181 18.9279 6.23585 18.9618 6.31813C18.9957 6.40042 19.0115 6.48903 19.0082 6.57797C19.0041 10.0469 19.0041 13.5158 19.0082 16.9848C19.0082 18.0574 18.4873 18.7165 17.4405 18.9734C17.4292 18.9734 17.422 18.9877 17.4128 18.9959H1.59536C1.59536 18.9959 1.58717 18.9836 1.58308 18.9826C0.720418 18.7984 0.195455 18.2774 0.0133037 17.4136C0.0133037 17.4085 0.00409328 17.4044 0 17.4003V6.34563ZM17.5786 18.1874L12.4876 13.0966C12.4537 13.1442 12.4167 13.1897 12.3771 13.2327C11.5379 14.0726 10.6985 14.9122 9.85867 15.7515C9.56089 16.0493 9.40637 16.0514 9.11267 15.7576C8.27355 14.9184 7.43443 14.0784 6.5953 13.2378C6.5601 13.1997 6.52922 13.1578 6.5032 13.1129L1.42037 18.1976C1.6034 18.2266 1.78787 18.2458 1.97296 18.2549C5.44816 18.259 8.92336 18.259 12.3986 18.2549C13.9571 18.2549 15.5156 18.2549 17.0731 18.2549C17.2429 18.2438 17.4118 18.2212 17.5786 18.1874ZM18.1793 17.6234C18.2143 17.4466 18.2386 17.2679 18.252 17.0881C18.256 13.9044 18.256 10.72 18.252 7.53492C18.2512 7.50275 18.2488 7.47064 18.2448 7.43872L13.119 12.5643L18.1793 17.6234ZM5.84623 12.5899L0.741908 7.4858V14.1047C0.741908 15.1057 0.741908 16.1076 0.741908 17.1096C0.755076 17.2819 0.780727 17.4529 0.818657 17.6214L5.84623 12.5899ZM1.99548 5.41631L0.933268 6.47255L1.99548 7.53492V5.41631ZM18.0422 6.46231L17.0096 5.43064V7.49603L18.0422 6.46231Z" fill="white"/>
<path d="M10.4888 8.1306C9.45322 9.13976 8.03285 8.57991 7.59896 7.31181C7.27559 6.36611 7.36974 5.46954 8.11062 4.73877C8.73075 4.12468 9.58523 4.06327 10.3159 4.54635C10.3359 4.55866 10.3568 4.56961 10.3783 4.5791C10.3855 4.51974 10.3885 4.46754 10.3998 4.41739C10.4181 4.32859 10.4681 4.24946 10.5404 4.19468C10.6126 4.13991 10.7023 4.11322 10.7927 4.11956C10.8829 4.12728 10.967 4.16781 11.0293 4.23345C11.0915 4.2991 11.1275 4.38531 11.1304 4.47573C11.1304 4.531 11.1304 4.58627 11.1304 4.64256C11.1304 5.58826 11.1304 6.5343 11.1304 7.48069C11.1304 8.00778 11.4825 8.2309 11.9614 8.00676C12.2346 7.87882 12.3912 7.64854 12.5068 7.37936C13.3848 5.33239 11.8529 3.58325 10.2709 3.22503C9.76151 3.10689 9.2314 3.11133 8.72411 3.23799C8.21682 3.36464 7.74681 3.60989 7.35273 3.95358C6.95865 4.29727 6.65175 4.72958 6.45724 5.215C6.26273 5.70041 6.18617 6.22506 6.23385 6.74582C6.3679 8.31278 7.69925 9.6208 9.26595 9.72519C9.32794 9.7279 9.38976 9.7337 9.45117 9.74259C9.54766 9.7512 9.63694 9.79727 9.69987 9.87093C9.7628 9.94459 9.79438 10.04 9.78784 10.1366C9.78435 10.1847 9.7714 10.2315 9.74973 10.2745C9.72806 10.3175 9.69811 10.3558 9.66159 10.3872C9.62507 10.4186 9.58271 10.4425 9.53694 10.4574C9.49117 10.4724 9.44289 10.4782 9.39489 10.4744C8.91197 10.4636 8.43538 10.3622 7.98987 10.1755C7.18193 9.85197 6.50189 9.27314 6.05333 8.52722C5.60478 7.7813 5.41231 6.90917 5.50525 6.04371C5.70991 4.13286 7.11288 2.70101 8.96816 2.43899C11.0302 2.1473 13.0236 3.51365 13.4421 5.51662C13.6202 6.36816 13.4575 7.18081 13.0533 7.93716C12.9235 8.19661 12.7262 8.41631 12.4823 8.57317C12.2383 8.73004 11.9565 8.81827 11.6667 8.82862C11.1877 8.85932 10.8357 8.64541 10.5819 8.24933C10.5584 8.2135 10.5379 8.17563 10.5154 8.13879C10.5154 8.13777 10.5072 8.13776 10.4888 8.1306ZM10.3926 6.26683C10.3598 6.06382 10.3126 5.86339 10.2514 5.66707C10.1184 5.29554 9.86152 5.03046 9.45219 4.98133C9.04287 4.93221 8.73075 5.11132 8.4872 5.42246C8.01852 6.02222 8.08913 7.07027 8.62944 7.60965C9.04696 8.02723 9.61081 8.00676 9.99251 7.55745C10.278 7.22174 10.3773 6.81951 10.3926 6.26683Z" fill="white"/>
<path d="M9.12124 0.365398C9.12178 0.268576 9.16062 0.175905 9.22926 0.107633C9.29791 0.0393598 9.39078 0.00103609 9.48759 0.0010376C9.58447 0.00284577 9.67693 0.0419366 9.74573 0.11018C9.81454 0.178423 9.85439 0.270566 9.85701 0.367446C9.85674 0.417034 9.84666 0.46608 9.82735 0.511752C9.80804 0.557423 9.77987 0.598818 9.74448 0.633548C9.70909 0.668278 9.66717 0.695656 9.62115 0.714102C9.57513 0.732547 9.52591 0.741696 9.47633 0.741019C9.42835 0.739694 9.3811 0.728923 9.33729 0.709326C9.29347 0.689728 9.25394 0.661687 9.22096 0.626803C9.18799 0.59192 9.1622 0.550879 9.14509 0.506026C9.12798 0.461173 9.11988 0.413386 9.12124 0.365398Z" fill="white"/>
</g>
<defs>
<clipPath id="clip0_178_1829">
<rect width="19" height="19" fill="white"/>
</clipPath>
</defs>
</svg>
