<svg width="15" height="15" viewBox="0 0 15 15" fill="none" xmlns="http://www.w3.org/2000/svg">
<g clip-path="url(#clip0_178_1833)">
<path d="M7.05689 14.9964C6.74251 14.9566 6.42812 14.9241 6.11735 14.8664C5.29851 14.7218 4.51182 14.4333 3.79382 14.0142C3.74364 13.9828 3.68699 13.9633 3.62814 13.957C3.5693 13.9508 3.50979 13.958 3.45414 13.9781C2.55436 14.2597 1.64735 14.5342 0.75479 14.8122H0.71504C0.657092 14.8436 0.590488 14.8553 0.525293 14.8455C0.460099 14.8358 0.399858 14.8051 0.353682 14.758C0.311424 14.7136 0.283093 14.6578 0.272178 14.5975C0.261263 14.5372 0.26824 14.475 0.292251 14.4186L1.07279 11.602C1.08919 11.5576 1.0948 11.5098 1.08914 11.4627C1.08349 11.4156 1.06674 11.3706 1.04026 11.3312C0.515991 10.4696 0.178669 9.5076 0.0501415 8.50744C-0.0935556 7.52907 -0.036976 6.53173 0.216452 5.57586C0.469879 4.61999 0.914879 3.72548 1.52449 2.94654C2.59164 1.50633 4.15651 0.514025 5.91499 0.162474C6.97287 -0.0784102 8.07126 -0.0798825 9.12979 0.15816C10.1883 0.396202 11.1802 0.867737 12.0328 1.53826C13.4752 2.61016 14.4712 4.17624 14.8297 5.93643C14.8984 6.25419 14.9273 6.58279 14.9743 6.90417C14.9743 6.95834 14.9743 7.00889 14.9996 7.05944V7.94052C14.9996 8.04524 14.9743 8.14996 14.9634 8.25467C14.8068 9.83395 14.1468 11.3212 13.0807 12.4976C11.9655 13.7603 10.4499 14.6017 8.7878 14.8808C8.50594 14.9314 8.22046 14.9603 7.9386 14.9964H7.05689ZM0.993288 14.1261L1.1559 14.0864C1.87862 13.8661 2.60133 13.6603 3.29153 13.422C3.42095 13.3731 3.56009 13.3555 3.69761 13.3705C3.83514 13.3856 3.96715 13.4329 4.08291 13.5086C5.52719 14.356 7.23681 14.6317 8.87452 14.2814C10.673 13.9182 12.2537 12.8568 13.27 11.3302C14.2862 9.80362 14.6548 7.93652 14.2949 6.13864C14.0024 4.69995 13.2611 3.39092 12.1775 2.39958C11.0939 1.40823 9.72372 0.785587 8.26383 0.62107C6.76262 0.443161 5.24541 0.779227 3.96004 1.57437C2.97724 2.14052 2.15271 2.94456 1.56229 3.91252C0.971881 4.88048 0.634552 5.98126 0.581339 7.11361C0.486552 8.53269 0.848709 9.94484 1.61483 11.1435C1.66479 11.2173 1.69699 11.3017 1.7089 11.39C1.72081 11.4783 1.71211 11.5682 1.68348 11.6526C1.4486 12.4651 1.22456 13.2848 0.993288 14.1261Z" fill="white"/>
<path d="M9.52534 12.0462C8.20159 11.9986 6.92777 11.5292 5.89007 10.7066C4.62201 9.73174 3.62644 8.44714 2.9992 6.97641C2.77117 6.48014 2.66965 5.93517 2.7037 5.39014C2.73775 4.84512 2.9063 4.317 3.19433 3.85292C3.36765 3.57084 3.5596 3.30062 3.76889 3.04406C3.80402 2.98402 3.85896 2.93807 3.92428 2.91406C4.24112 2.81329 4.57904 2.79834 4.90356 2.87073C5.00673 2.89882 5.09645 2.96286 5.15651 3.05128C5.5599 3.65043 5.89332 4.29376 6.15025 4.96871C6.19606 5.10573 6.20815 5.25177 6.18551 5.39445C6.16286 5.53713 6.10614 5.67226 6.02016 5.7884C5.88553 5.98645 5.737 6.1747 5.57568 6.35171C5.54248 6.38216 5.51997 6.42248 5.51151 6.46671C5.50305 6.51095 5.50908 6.55672 5.52871 6.59726C5.66737 6.93038 5.87132 7.2324 6.12856 7.48556C6.80064 8.2071 7.58383 8.81662 8.44849 9.29105C8.68337 9.42466 8.72673 9.42104 8.90741 9.21522C9.16759 8.92634 9.41693 8.62302 9.65542 8.31608C9.73581 8.18607 9.86209 8.09093 10.0093 8.04948C10.1565 8.00802 10.3139 8.02327 10.4504 8.09221C10.5752 8.15149 10.696 8.21904 10.8118 8.29442L12.3403 9.2405C12.3817 9.25646 12.4196 9.28045 12.4516 9.31111C12.4837 9.34176 12.5094 9.37845 12.5272 9.41908C12.545 9.4597 12.5546 9.50344 12.5554 9.54779C12.5562 9.59213 12.5482 9.63619 12.5318 9.67742C12.4514 10.2008 12.2443 10.6967 11.9284 11.1218C11.7122 11.387 11.4438 11.6049 11.1398 11.7621C10.8359 11.9192 10.5028 12.0123 10.1613 12.0354C9.94451 12.0462 9.74215 12.0462 9.52534 12.0462ZM9.61206 11.4576C10.0521 11.4814 10.4913 11.3971 10.8913 11.2121C11.1663 11.0626 11.4019 10.8502 11.5791 10.5923C11.7562 10.3343 11.8697 10.0382 11.9103 9.72798C11.9099 9.70805 11.9048 9.6885 11.8953 9.67092C11.8859 9.65335 11.8725 9.63826 11.8561 9.62687L10.295 8.6519C10.1975 8.59052 10.136 8.59413 10.0565 8.69885C9.81755 9.02519 9.55421 9.333 9.26877 9.61965C8.799 10.053 8.63278 10.0241 8.18469 9.78936C7.11719 9.25163 6.17522 8.4949 5.4203 7.56861C5.19664 7.29238 5.03296 6.97265 4.93969 6.62976C4.89926 6.52477 4.89143 6.41005 4.91721 6.30055C4.94299 6.19104 5.0012 6.09185 5.08424 6.01589C5.22821 5.86949 5.36108 5.71258 5.48173 5.54646C5.55282 5.46822 5.59739 5.36954 5.60906 5.2645C5.62074 5.15946 5.59895 5.05342 5.54678 4.96149C5.30105 4.49567 5.05533 4.02985 4.82406 3.56043C4.79692 3.4962 4.74797 3.4436 4.68584 3.41189C4.6237 3.38019 4.55236 3.37141 4.48438 3.3871C4.38526 3.38146 4.28656 3.40389 4.19963 3.45179C4.1127 3.4997 4.04105 3.57115 3.99293 3.65792C3.84116 3.93958 3.63157 4.20318 3.51955 4.49567C3.36125 4.8275 3.2761 5.18943 3.26986 5.55699C3.26363 5.92454 3.33646 6.28915 3.48342 6.62615C4.0838 8.07144 5.05473 9.33311 6.2984 10.2841C7.24472 11.027 8.40877 11.4393 9.61206 11.4576Z" fill="white"/>
</g>
<defs>
<clipPath id="clip0_178_1833">
<rect width="15" height="15" fill="white"/>
</clipPath>
</defs>
</svg>
