<svg width="43" height="43" viewBox="0 0 43 43" fill="none" xmlns="http://www.w3.org/2000/svg">
<g clip-path="url(#clip0_251_340)">
<path d="M21.5341 0.00739157H33.1248C38.6807 0.00739157 42.95 4.16391 42.9757 9.69639C43.0121 17.5332 43.0121 25.37 42.9757 33.2068C42.9515 38.8132 38.7671 42.9637 33.1369 42.9833C25.3572 43.0124 17.5776 43.0124 9.79786 42.9833C4.18284 42.9667 0 38.7635 0 33.1782C0 25.3414 0 17.5046 0 9.66777C0 4.29503 4.22678 0.0420559 9.6372 0.00890012C13.6033 -0.012199 17.5679 0.00739157 21.5341 0.00739157ZM7.04571 35.8307C7.5231 35.6875 7.80346 35.6046 8.09444 35.5142C10.1616 34.8631 12.2243 34.194 14.3081 33.5776C14.6815 33.4799 15.0769 33.508 15.4326 33.6575C17.0629 34.4013 18.8073 34.8674 20.5929 35.0364C29.3406 35.8427 36.8227 28.3721 35.7982 19.7079C35.0844 13.6796 31.6714 9.66928 25.9094 7.78392C20.5187 6.02064 14.443 7.80351 10.9057 12.1545C7.09871 16.8354 6.54704 21.9942 9.14162 27.4378C9.47352 28.134 9.51296 28.7022 9.25684 29.4105C8.49908 31.4782 7.8156 33.5716 7.04571 35.8307Z" fill="black"/>
<path d="M10.6654 32.3344C11.1003 31.0202 11.4474 29.8507 11.8778 28.7174C12.0718 28.2095 12.0066 27.8523 11.7187 27.4093C8.94224 23.1503 9.27261 17.7775 12.534 13.7084C15.6014 9.88192 21.0301 8.39443 25.7555 10.0914C30.5324 11.8004 33.7014 16.2885 33.6256 21.2438C33.4892 30.226 23.6792 35.7645 15.8136 31.29C15.6177 31.1612 15.3938 31.0804 15.1604 31.0542C14.927 31.028 14.6908 31.0571 14.4709 31.1393C13.2691 31.5372 12.0445 31.9004 10.6654 32.3344ZM14.7816 17.8077C14.8437 18.1769 14.8194 18.5898 14.9816 18.9093C15.556 20.0442 16.1031 21.2106 16.8275 22.249C18.8189 25.1004 21.5848 26.8426 25.0114 27.5238C26.3253 27.7845 27.4696 27.3219 28.3637 26.3634C29.3261 25.3295 29.0927 24.2293 27.853 23.631L26.8315 23.1352C25.4781 22.4871 25.4781 22.4871 24.5476 23.6385C23.9171 24.4177 23.6201 24.487 22.729 24.0907C21.2948 23.4446 20.0551 22.4373 19.1326 21.1684C18.2945 20.0381 18.3188 20.0623 19.1326 18.9169C19.3615 18.5974 19.5297 18.0699 19.4357 17.7112C19.1993 16.8718 18.7734 16.0866 18.4552 15.2667C18.2581 14.7588 17.9202 14.6111 17.3943 14.6533C15.8 14.7799 14.8513 15.9163 14.7816 17.8046V17.8077Z" fill="black"/>
</g>
<defs>
<clipPath id="clip0_251_340">
<rect width="43" height="43" fill="white"/>
</clipPath>
</defs>
</svg>
